# MagicaVoxel @ Ephtracy

# group
o 

# material
mtllib untitled.mtl
usemtl palette

# normals
vn -1 0 0
vn 1 0 0
vn 0 0 1
vn 0 0 -1
vn 0 -1 0
vn 0 1 0

# texcoords
vt 0.845703 0.5

# verts
v -0.3 0 0.1
v -0.3 0 4.47035e-008
v -0.3 0.1 0.1
v -0.3 0.1 4.47035e-008
v -0.3 0.1 -0.1
v -0.3 0.2 4.47035e-008
v -0.3 0.2 -0.1
v 2.98023e-008 0 4.47035e-008
v 2.98023e-008 0 -0.1
v 2.98023e-008 0.1 4.47035e-008
v 2.98023e-008 0.1 -0.1
v 2.98023e-008 0.1 4.47035e-008
v 2.98023e-008 0.1 -0.1
v 2.98023e-008 0.2 4.47035e-008
v 2.98023e-008 0.2 -0.1
v 0.4 0 0.1
v 0.4 0 -0.1
v 0.4 0.1 0.1
v 0.4 0.1 -0.1
v -0.3 0 0.1
v -0.3 0.1 0.1
v 0.4 0 0.1
v 0.4 0.1 0.1
v -0.3 0.1 4.47035e-008
v -0.3 0.2 4.47035e-008
v 2.98023e-008 0.1 4.47035e-008
v 2.98023e-008 0.2 4.47035e-008
v -0.3 0 4.47035e-008
v -0.3 0.1 4.47035e-008
v 2.98023e-008 0 4.47035e-008
v 2.98023e-008 0.1 4.47035e-008
v -0.3 0.1 -0.1
v -0.3 0.2 -0.1
v 2.98023e-008 0 -0.1
v 2.98023e-008 0.1 -0.1
v 2.98023e-008 0.2 -0.1
v 0.4 0 -0.1
v 0.4 0.1 -0.1
v -0.3 0 0.1
v 0.4 0 0.1
v -0.3 0 4.47035e-008
v 2.98023e-008 0 4.47035e-008
v 2.98023e-008 0 -0.1
v 0.4 0 -0.1
v -0.3 0.1 4.47035e-008
v 2.98023e-008 0.1 4.47035e-008
v -0.3 0.1 -0.1
v 2.98023e-008 0.1 -0.1
v -0.3 0.1 0.1
v 0.4 0.1 0.1
v -0.3 0.1 4.47035e-008
v 2.98023e-008 0.1 4.47035e-008
v 2.98023e-008 0.1 -0.1
v 0.4 0.1 -0.1
v -0.3 0.2 4.47035e-008
v 2.98023e-008 0.2 4.47035e-008
v -0.3 0.2 -0.1
v 2.98023e-008 0.2 -0.1

# faces
f 3/1/1 2/1/1 1/1/1
f 4/1/1 2/1/1 3/1/1
f 6/1/1 5/1/1 4/1/1
f 7/1/1 5/1/1 6/1/1
f 10/1/1 9/1/1 8/1/1
f 11/1/1 9/1/1 10/1/1
f 12/1/2 13/1/2 14/1/2
f 14/1/2 13/1/2 15/1/2
f 16/1/2 17/1/2 18/1/2
f 18/1/2 17/1/2 19/1/2
f 22/1/3 21/1/3 20/1/3
f 23/1/3 21/1/3 22/1/3
f 26/1/3 25/1/3 24/1/3
f 27/1/3 25/1/3 26/1/3
f 28/1/4 29/1/4 30/1/4
f 30/1/4 29/1/4 31/1/4
f 32/1/4 33/1/4 35/1/4
f 35/1/4 33/1/4 36/1/4
f 34/1/4 35/1/4 37/1/4
f 37/1/4 35/1/4 38/1/4
f 41/1/5 40/1/5 39/1/5
f 42/1/5 40/1/5 41/1/5
f 43/1/5 40/1/5 42/1/5
f 44/1/5 40/1/5 43/1/5
f 47/1/5 46/1/5 45/1/5
f 48/1/5 46/1/5 47/1/5
f 49/1/6 50/1/6 51/1/6
f 51/1/6 50/1/6 52/1/6
f 52/1/6 50/1/6 53/1/6
f 53/1/6 50/1/6 54/1/6
f 55/1/6 56/1/6 57/1/6
f 57/1/6 56/1/6 58/1/6
