# MagicaVoxel @ Ephtracy

# group
o 

# material
mtllib box1GR5.mtl
usemtl palette

# normals
vn -1 0 0
vn 1 0 0
vn 0 0 1
vn 0 0 -1
vn 0 -1 0
vn 0 1 0

# texcoords
vt 0.185547 0.5
vt 0.205078 0.5
vt 0.208984 0.5

# verts
v -0.5 0 0.6
v -0.5 0 -0.6
v -0.5 0.1 0.5
v -0.5 0.1 -0.5
v -0.5 0.2 0.4
v -0.5 0.2 -0.2
v -0.5 0.3 0.3
v -0.5 0.3 -0.2
v -0.5 0.3 -0.3
v -0.5 0.4 0.2
v -0.5 0.4 0.1
v -0.5 0.5 0.2
v -0.5 0.5 0.1
v -0.5 0.5 -0.1
v -0.5 0.5 -0.2
v -0.5 0.5 -0.3
v -0.5 0.5 -0.4
v -0.5 0.6 0.4
v -0.5 0.6 0.3
v -0.5 0.6 0.1
v -0.5 0.6 -0.1
v -0.5 0.7 -0.3
v -0.5 0.7 -0.4
v -0.5 0.8 0.5
v -0.5 0.8 -0.5
v -0.5 0.9 0.6
v -0.5 0.9 -0.6
v -0.4 0.1 0.5
v -0.4 0.1 -0.5
v -0.4 0.2 0.4
v -0.4 0.2 -0.2
v -0.4 0.3 0.3
v -0.4 0.3 -0.2
v -0.4 0.3 -0.3
v -0.4 0.4 0.2
v -0.4 0.4 0.1
v -0.4 0.5 0.2
v -0.4 0.5 0.1
v -0.4 0.5 -0.1
v -0.4 0.5 -0.2
v -0.4 0.5 -0.3
v -0.4 0.5 -0.4
v -0.4 0.6 0.4
v -0.4 0.6 0.3
v -0.4 0.6 0.1
v -0.4 0.6 -0.1
v -0.4 0.7 -0.3
v -0.4 0.7 -0.4
v -0.4 0.8 0.5
v -0.4 0.8 -0.5
v -0.3 0.2 -0.5
v -0.3 0.2 -0.6
v -0.3 0.3 -0.5
v -0.3 0.3 -0.6
v -0.3 0.4 0.6
v -0.3 0.4 0.5
v -0.3 0.4 -0.5
v -0.3 0.4 -0.6
v -0.3 0.5 -0.5
v -0.3 0.5 -0.6
v -0.3 0.6 -0.5
v -0.3 0.6 -0.6
v -0.3 0.7 -0.5
v -0.3 0.7 -0.6
v -0.3 0.8 0.6
v -0.3 0.8 0.5
v -0.1 0.2 0.6
v -0.1 0.2 0.5
v -0.1 0.2 -0.5
v -0.1 0.2 -0.6
v -0.1 0.3 0.6
v -0.1 0.3 0.5
v -0.1 0.3 -0.5
v -0.1 0.3 -0.6
v 0.3 0.2 0.6
v 0.3 0.2 0.5
v 0.3 0.3 -0.5
v 0.3 0.3 -0.6
v 0.3 0.5 0.6
v 0.3 0.5 0.5
v 0.3 0.5 -0.5
v 0.3 0.5 -0.6
v 0.3 0.6 0.6
v 0.3 0.6 0.5
v 0.3 0.7 0.6
v 0.3 0.7 0.5
v 0.5 0 0.5
v 0.5 0 -0.5
v 0.5 0.1 0.6
v 0.5 0.1 0.5
v 0.5 0.1 -0.5
v 0.5 0.1 -0.6
v 0.5 0.8 0.6
v 0.5 0.8 0.5
v 0.5 0.8 -0.5
v 0.5 0.8 -0.6
v 0.5 0.9 0.5
v 0.5 0.9 -0.5
v -0.4 0 0.5
v -0.4 0 -0.5
v -0.4 0.1 0.6
v -0.4 0.1 0.5
v -0.4 0.1 -0.5
v -0.4 0.1 -0.6
v -0.4 0.8 0.6
v -0.4 0.8 0.5
v -0.4 0.8 -0.5
v -0.4 0.8 -0.6
v -0.4 0.9 0.5
v -0.4 0.9 -0.5
v -0.2 0.2 -0.5
v -0.2 0.2 -0.6
v -0.2 0.3 -0.5
v -0.2 0.3 -0.6
v -0.2 0.4 0.6
v -0.2 0.4 0.5
v -0.2 0.5 0.6
v -0.2 0.5 0.5
v -0.2 0.6 0.6
v -0.2 0.6 0.5
v -0.2 0.8 0.6
v -0.2 0.8 0.5
v 0.1 0.4 -0.5
v 0.1 0.4 -0.6
v 0.1 0.5 -0.5
v 0.1 0.5 -0.6
v 0.2 0.2 0.6
v 0.2 0.2 0.5
v 0.2 0.3 0.6
v 0.2 0.3 0.5
v 0.3 0.5 0.6
v 0.3 0.5 0.5
v 0.3 0.6 0.6
v 0.3 0.6 0.5
v 0.4 0.2 0.6
v 0.4 0.2 0.5
v 0.4 0.2 -0.5
v 0.4 0.2 -0.6
v 0.4 0.5 0.6
v 0.4 0.5 0.5
v 0.4 0.5 -0.5
v 0.4 0.5 -0.6
v 0.4 0.6 0.6
v 0.4 0.6 0.5
v 0.4 0.6 -0.5
v 0.4 0.6 -0.6
v 0.4 0.7 0.6
v 0.4 0.7 0.5
v 0.4 0.7 -0.5
v 0.4 0.7 -0.6
v 0.5 0.1 0.5
v 0.5 0.1 0.4
v 0.5 0.1 0.3
v 0.5 0.1 -0.5
v 0.5 0.2 -0.2
v 0.5 0.2 -0.3
v 0.5 0.3 0.4
v 0.5 0.3 0.3
v 0.5 0.3 -0.1
v 0.5 0.4 0.1
v 0.5 0.4 -0.1
v 0.5 0.5 0.3
v 0.5 0.5 0.1
v 0.5 0.6 0.4
v 0.5 0.6 -0.2
v 0.5 0.7 0.4
v 0.5 0.7 -0.3
v 0.5 0.8 0.5
v 0.5 0.8 -0.5
v 0.6 0 0.6
v 0.6 0 -0.6
v 0.6 0.1 0.5
v 0.6 0.1 0.4
v 0.6 0.1 0.3
v 0.6 0.1 -0.5
v 0.6 0.2 -0.2
v 0.6 0.2 -0.3
v 0.6 0.3 0.4
v 0.6 0.3 0.3
v 0.6 0.3 -0.1
v 0.6 0.4 0.1
v 0.6 0.4 -0.1
v 0.6 0.5 0.3
v 0.6 0.5 0.1
v 0.6 0.6 0.4
v 0.6 0.6 -0.2
v 0.6 0.7 0.4
v 0.6 0.7 -0.3
v 0.6 0.8 0.5
v 0.6 0.8 -0.5
v 0.6 0.9 0.6
v 0.6 0.9 -0.6
v -0.5 0 0.6
v -0.5 0.9 0.6
v -0.4 0.1 0.6
v -0.4 0.8 0.6
v -0.3 0.4 0.6
v -0.3 0.8 0.6
v -0.2 0.4 0.6
v -0.2 0.5 0.6
v -0.2 0.6 0.6
v -0.2 0.8 0.6
v -0.1 0.2 0.6
v -0.1 0.3 0.6
v 0.2 0.2 0.6
v 0.2 0.3 0.6
v 0.3 0.2 0.6
v 0.3 0.5 0.6
v 0.3 0.6 0.6
v 0.3 0.7 0.6
v 0.4 0.2 0.6
v 0.4 0.5 0.6
v 0.4 0.6 0.6
v 0.4 0.7 0.6
v 0.5 0.1 0.6
v 0.5 0.8 0.6
v 0.6 0 0.6
v 0.6 0.9 0.6
v -0.4 0.1 0.5
v -0.4 0.8 0.5
v -0.3 0.4 0.5
v -0.3 0.8 0.5
v -0.2 0.4 0.5
v -0.2 0.5 0.5
v -0.2 0.6 0.5
v -0.2 0.8 0.5
v -0.1 0.2 0.5
v -0.1 0.3 0.5
v 0.2 0.2 0.5
v 0.2 0.3 0.5
v 0.3 0.2 0.5
v 0.3 0.5 0.5
v 0.3 0.6 0.5
v 0.3 0.7 0.5
v 0.4 0.2 0.5
v 0.4 0.5 0.5
v 0.4 0.6 0.5
v 0.4 0.7 0.5
v 0.5 0.1 0.5
v 0.5 0.8 0.5
v -0.5 0.2 0.4
v -0.5 0.6 0.4
v -0.4 0.2 0.4
v -0.4 0.6 0.4
v 0.5 0.1 0.4
v 0.5 0.3 0.4
v 0.5 0.6 0.4
v 0.5 0.7 0.4
v 0.6 0.1 0.4
v 0.6 0.3 0.4
v 0.6 0.6 0.4
v 0.6 0.7 0.4
v 0.5 0.3 0.3
v 0.5 0.5 0.3
v 0.6 0.3 0.3
v 0.6 0.5 0.3
v -0.5 0.4 0.2
v -0.5 0.5 0.2
v -0.4 0.4 0.2
v -0.4 0.5 0.2
v -0.5 0.5 0.1
v -0.5 0.6 0.1
v -0.4 0.5 0.1
v -0.4 0.6 0.1
v -0.5 0.3 -0.2
v -0.5 0.5 -0.2
v -0.4 0.3 -0.2
v -0.4 0.5 -0.2
v 0.5 0.2 -0.2
v 0.5 0.6 -0.2
v 0.6 0.2 -0.2
v 0.6 0.6 -0.2
v -0.5 0.5 -0.3
v -0.5 0.7 -0.3
v -0.4 0.5 -0.3
v -0.4 0.7 -0.3
v -0.5 0.1 -0.5
v -0.5 0.8 -0.5
v -0.4 0 -0.5
v -0.4 0.1 -0.5
v -0.4 0.8 -0.5
v -0.4 0.9 -0.5
v 0.5 0 -0.5
v 0.5 0.1 -0.5
v 0.5 0.8 -0.5
v 0.5 0.9 -0.5
v 0.6 0.1 -0.5
v 0.6 0.8 -0.5
v -0.5 0.1 0.5
v -0.5 0.8 0.5
v -0.4 0 0.5
v -0.4 0.1 0.5
v -0.4 0.8 0.5
v -0.4 0.9 0.5
v 0.5 0 0.5
v 0.5 0.1 0.5
v 0.5 0.8 0.5
v 0.5 0.9 0.5
v 0.6 0.1 0.5
v 0.6 0.8 0.5
v -0.5 0.3 0.3
v -0.5 0.6 0.3
v -0.4 0.3 0.3
v -0.4 0.6 0.3
v 0.5 0.1 0.3
v 0.5 0.3 0.3
v 0.6 0.1 0.3
v 0.6 0.3 0.3
v -0.5 0.4 0.1
v -0.5 0.5 0.1
v -0.4 0.4 0.1
v -0.4 0.5 0.1
v 0.5 0.4 0.1
v 0.5 0.5 0.1
v 0.6 0.4 0.1
v 0.6 0.5 0.1
v -0.5 0.5 -0.1
v -0.5 0.6 -0.1
v -0.4 0.5 -0.1
v -0.4 0.6 -0.1
v 0.5 0.3 -0.1
v 0.5 0.4 -0.1
v 0.6 0.3 -0.1
v 0.6 0.4 -0.1
v -0.5 0.2 -0.2
v -0.5 0.3 -0.2
v -0.4 0.2 -0.2
v -0.4 0.3 -0.2
v -0.5 0.3 -0.3
v -0.5 0.5 -0.3
v -0.4 0.3 -0.3
v -0.4 0.5 -0.3
v 0.5 0.2 -0.3
v 0.5 0.7 -0.3
v 0.6 0.2 -0.3
v 0.6 0.7 -0.3
v -0.5 0.5 -0.4
v -0.5 0.7 -0.4
v -0.4 0.5 -0.4
v -0.4 0.7 -0.4
v -0.4 0.1 -0.5
v -0.4 0.8 -0.5
v -0.3 0.2 -0.5
v -0.3 0.3 -0.5
v -0.3 0.4 -0.5
v -0.3 0.5 -0.5
v -0.3 0.6 -0.5
v -0.3 0.7 -0.5
v -0.2 0.2 -0.5
v -0.2 0.3 -0.5
v -0.1 0.2 -0.5
v -0.1 0.3 -0.5
v 0.1 0.4 -0.5
v 0.1 0.5 -0.5
v 0.3 0.3 -0.5
v 0.3 0.5 -0.5
v 0.4 0.2 -0.5
v 0.4 0.5 -0.5
v 0.4 0.6 -0.5
v 0.4 0.7 -0.5
v 0.5 0.1 -0.5
v 0.5 0.8 -0.5
v -0.5 0 -0.6
v -0.5 0.9 -0.6
v -0.4 0.1 -0.6
v -0.4 0.8 -0.6
v -0.3 0.2 -0.6
v -0.3 0.3 -0.6
v -0.3 0.4 -0.6
v -0.3 0.5 -0.6
v -0.3 0.6 -0.6
v -0.3 0.7 -0.6
v -0.2 0.2 -0.6
v -0.2 0.3 -0.6
v -0.1 0.2 -0.6
v -0.1 0.3 -0.6
v 0.1 0.4 -0.6
v 0.1 0.5 -0.6
v 0.3 0.3 -0.6
v 0.3 0.5 -0.6
v 0.4 0.2 -0.6
v 0.4 0.5 -0.6
v 0.4 0.6 -0.6
v 0.4 0.7 -0.6
v 0.5 0.1 -0.6
v 0.5 0.8 -0.6
v 0.6 0 -0.6
v 0.6 0.9 -0.6
v -0.5 0 0.6
v 0.6 0 0.6
v -0.4 0 0.5
v 0.5 0 0.5
v -0.4 0 -0.5
v 0.5 0 -0.5
v -0.5 0 -0.6
v 0.6 0 -0.6
v -0.4 0.1 0.5
v 0.5 0.1 0.5
v -0.4 0.1 -0.5
v 0.5 0.1 -0.5
v -0.1 0.2 0.6
v 0.2 0.2 0.6
v 0.3 0.2 0.6
v 0.4 0.2 0.6
v -0.1 0.2 0.5
v 0.2 0.2 0.5
v 0.3 0.2 0.5
v 0.4 0.2 0.5
v -0.5 0.2 0.4
v -0.4 0.2 0.4
v -0.5 0.2 -0.2
v -0.4 0.2 -0.2
v 0.5 0.2 -0.2
v 0.6 0.2 -0.2
v 0.5 0.2 -0.3
v 0.6 0.2 -0.3
v -0.3 0.2 -0.5
v -0.2 0.2 -0.5
v -0.1 0.2 -0.5
v 0.4 0.2 -0.5
v -0.3 0.2 -0.6
v -0.2 0.2 -0.6
v -0.1 0.2 -0.6
v 0.4 0.2 -0.6
v 0.5 0.3 0.3
v 0.6 0.3 0.3
v 0.5 0.3 -0.1
v 0.6 0.3 -0.1
v -0.5 0.3 -0.2
v -0.4 0.3 -0.2
v -0.5 0.3 -0.3
v -0.4 0.3 -0.3
v -0.3 0.4 0.6
v -0.2 0.4 0.6
v -0.3 0.4 0.5
v -0.2 0.4 0.5
v -0.5 0.4 0.2
v -0.4 0.4 0.2
v -0.5 0.4 0.1
v -0.4 0.4 0.1
v -0.3 0.4 -0.5
v 0.1 0.4 -0.5
v -0.3 0.4 -0.6
v 0.1 0.4 -0.6
v -0.2 0.5 0.6
v 0.3 0.5 0.6
v -0.2 0.5 0.5
v 0.3 0.5 0.5
v -0.5 0.5 0.1
v -0.4 0.5 0.1
v -0.5 0.5 -0.1
v -0.4 0.5 -0.1
v -0.5 0.5 -0.3
v -0.4 0.5 -0.3
v -0.5 0.5 -0.4
v -0.4 0.5 -0.4
v 0.3 0.6 0.6
v 0.4 0.6 0.6
v 0.3 0.6 0.5
v 0.4 0.6 0.5
v 0.5 0.6 0.4
v 0.6 0.6 0.4
v 0.5 0.6 -0.2
v 0.6 0.6 -0.2
v -0.3 0.6 -0.5
v 0.4 0.6 -0.5
v -0.3 0.6 -0.6
v 0.4 0.6 -0.6
v -0.4 0.8 0.6
v -0.3 0.8 0.6
v -0.2 0.8 0.6
v 0.5 0.8 0.6
v -0.5 0.8 0.5
v -0.4 0.8 0.5
v -0.3 0.8 0.5
v -0.2 0.8 0.5
v 0.5 0.8 0.5
v 0.6 0.8 0.5
v -0.5 0.8 -0.5
v -0.4 0.8 -0.5
v 0.5 0.8 -0.5
v 0.6 0.8 -0.5
v -0.4 0.8 -0.6
v 0.5 0.8 -0.6
v -0.4 0.1 0.6
v 0.5 0.1 0.6
v -0.5 0.1 0.5
v -0.4 0.1 0.5
v 0.5 0.1 0.5
v 0.6 0.1 0.5
v 0.5 0.1 0.4
v 0.6 0.1 0.4
v 0.5 0.1 0.3
v 0.6 0.1 0.3
v -0.5 0.1 -0.5
v -0.4 0.1 -0.5
v 0.5 0.1 -0.5
v 0.6 0.1 -0.5
v -0.4 0.1 -0.6
v 0.5 0.1 -0.6
v -0.1 0.3 0.6
v 0.2 0.3 0.6
v -0.1 0.3 0.5
v 0.2 0.3 0.5
v 0.5 0.3 0.4
v 0.6 0.3 0.4
v -0.5 0.3 0.3
v -0.4 0.3 0.3
v 0.5 0.3 0.3
v 0.6 0.3 0.3
v -0.5 0.3 -0.2
v -0.4 0.3 -0.2
v -0.3 0.3 -0.5
v -0.2 0.3 -0.5
v -0.1 0.3 -0.5
v 0.3 0.3 -0.5
v -0.3 0.3 -0.6
v -0.2 0.3 -0.6
v -0.1 0.3 -0.6
v 0.3 0.3 -0.6
v 0.5 0.4 0.1
v 0.6 0.4 0.1
v 0.5 0.4 -0.1
v 0.6 0.4 -0.1
v 0.3 0.5 0.6
v 0.4 0.5 0.6
v 0.3 0.5 0.5
v 0.4 0.5 0.5
v 0.5 0.5 0.3
v 0.6 0.5 0.3
v -0.5 0.5 0.2
v -0.4 0.5 0.2
v -0.5 0.5 0.1
v -0.4 0.5 0.1
v 0.5 0.5 0.1
v 0.6 0.5 0.1
v -0.5 0.5 -0.2
v -0.4 0.5 -0.2
v -0.5 0.5 -0.3
v -0.4 0.5 -0.3
v -0.3 0.5 -0.5
v 0.1 0.5 -0.5
v 0.3 0.5 -0.5
v 0.4 0.5 -0.5
v -0.3 0.5 -0.6
v 0.1 0.5 -0.6
v 0.3 0.5 -0.6
v 0.4 0.5 -0.6
v -0.2 0.6 0.6
v 0.3 0.6 0.6
v -0.2 0.6 0.5
v 0.3 0.6 0.5
v -0.5 0.6 0.4
v -0.4 0.6 0.4
v -0.5 0.6 0.3
v -0.4 0.6 0.3
v -0.5 0.6 0.1
v -0.4 0.6 0.1
v -0.5 0.6 -0.1
v -0.4 0.6 -0.1
v 0.3 0.7 0.6
v 0.4 0.7 0.6
v 0.3 0.7 0.5
v 0.4 0.7 0.5
v 0.5 0.7 0.4
v 0.6 0.7 0.4
v -0.5 0.7 -0.3
v -0.4 0.7 -0.3
v 0.5 0.7 -0.3
v 0.6 0.7 -0.3
v -0.5 0.7 -0.4
v -0.4 0.7 -0.4
v -0.3 0.7 -0.5
v 0.4 0.7 -0.5
v -0.3 0.7 -0.6
v 0.4 0.7 -0.6
v -0.4 0.8 0.5
v 0.5 0.8 0.5
v -0.4 0.8 -0.5
v 0.5 0.8 -0.5
v -0.5 0.9 0.6
v 0.6 0.9 0.6
v -0.4 0.9 0.5
v 0.5 0.9 0.5
v -0.4 0.9 -0.5
v 0.5 0.9 -0.5
v -0.5 0.9 -0.6
v 0.6 0.9 -0.6

# faces
f 3/3/1 2/3/1 1/3/1
f 4/3/1 2/3/1 3/3/1
f 7/2/1 6/2/1 5/2/1
f 8/2/1 6/2/1 7/2/1
f 12/2/1 11/2/1 10/2/1
f 13/2/1 11/2/1 12/2/1
f 15/2/1 9/2/1 8/2/1
f 16/2/1 9/2/1 15/2/1
f 18/2/1 7/2/1 5/2/1
f 19/2/1 7/2/1 18/2/1
f 20/2/1 14/2/1 13/2/1
f 21/2/1 14/2/1 20/2/1
f 22/2/1 17/2/1 16/2/1
f 23/2/1 17/2/1 22/2/1
f 24/3/1 3/3/1 1/3/1
f 25/3/1 2/3/1 4/3/1
f 26/3/1 24/3/1 1/3/1
f 26/3/1 25/3/1 24/3/1
f 27/3/1 2/3/1 25/3/1
f 27/3/1 25/3/1 26/3/1
f 30/3/1 29/3/1 28/3/1
f 31/3/1 29/3/1 30/3/1
f 33/3/1 29/3/1 31/3/1
f 34/3/1 29/3/1 33/3/1
f 35/3/1 33/3/1 32/3/1
f 36/3/1 33/3/1 35/3/1
f 37/3/1 35/3/1 32/3/1
f 38/3/1 33/3/1 36/3/1
f 39/3/1 33/3/1 38/3/1
f 40/3/1 33/3/1 39/3/1
f 41/3/1 29/3/1 34/3/1
f 42/3/1 29/3/1 41/3/1
f 43/3/1 30/3/1 28/3/1
f 44/3/1 37/3/1 32/3/1
f 44/3/1 38/3/1 37/3/1
f 45/3/1 38/3/1 44/3/1
f 46/3/1 40/3/1 39/3/1
f 46/3/1 41/3/1 40/3/1
f 47/3/1 45/3/1 44/3/1
f 47/3/1 46/3/1 45/3/1
f 47/3/1 41/3/1 46/3/1
f 47/3/1 44/3/1 43/3/1
f 48/3/1 29/3/1 42/3/1
f 49/3/1 47/3/1 43/3/1
f 49/3/1 48/3/1 47/3/1
f 49/3/1 43/3/1 28/3/1
f 50/3/1 29/3/1 48/3/1
f 50/3/1 48/3/1 49/3/1
f 53/2/1 52/2/1 51/2/1
f 54/2/1 52/2/1 53/2/1
f 59/2/1 58/2/1 57/2/1
f 60/2/1 58/2/1 59/2/1
f 63/2/1 62/2/1 61/2/1
f 64/2/1 62/2/1 63/2/1
f 65/2/1 56/2/1 55/2/1
f 66/2/1 56/2/1 65/2/1
f 71/2/1 68/2/1 67/2/1
f 72/2/1 68/2/1 71/2/1
f 73/2/1 70/2/1 69/2/1
f 74/2/1 70/2/1 73/2/1
f 79/2/1 76/2/1 75/2/1
f 80/2/1 76/2/1 79/2/1
f 81/2/1 78/2/1 77/2/1
f 82/2/1 78/2/1 81/2/1
f 85/2/1 84/2/1 83/2/1
f 86/2/1 84/2/1 85/2/1
f 90/3/1 88/3/1 87/3/1
f 91/3/1 88/3/1 90/3/1
f 93/3/1 90/3/1 89/3/1
f 94/3/1 90/3/1 93/3/1
f 95/3/1 92/3/1 91/3/1
f 96/3/1 92/3/1 95/3/1
f 97/3/1 95/3/1 94/3/1
f 98/3/1 95/3/1 97/3/1
f 99/3/2 100/3/2 102/3/2
f 102/3/2 100/3/2 103/3/2
f 101/3/2 102/3/2 105/3/2
f 105/3/2 102/3/2 106/3/2
f 103/3/2 104/3/2 107/3/2
f 107/3/2 104/3/2 108/3/2
f 106/3/2 107/3/2 109/3/2
f 109/3/2 107/3/2 110/3/2
f 111/2/2 112/2/2 113/2/2
f 113/2/2 112/2/2 114/2/2
f 115/2/2 116/2/2 117/2/2
f 117/2/2 116/2/2 118/2/2
f 119/2/2 120/2/2 121/2/2
f 121/2/2 120/2/2 122/2/2
f 123/2/2 124/2/2 125/2/2
f 125/2/2 124/2/2 126/2/2
f 127/2/2 128/2/2 129/2/2
f 129/2/2 128/2/2 130/2/2
f 131/2/2 132/2/2 133/2/2
f 133/2/2 132/2/2 134/2/2
f 135/2/2 136/2/2 139/2/2
f 139/2/2 136/2/2 140/2/2
f 137/2/2 138/2/2 141/2/2
f 141/2/2 138/2/2 142/2/2
f 143/2/2 144/2/2 147/2/2
f 147/2/2 144/2/2 148/2/2
f 145/2/2 146/2/2 149/2/2
f 149/2/2 146/2/2 150/2/2
f 153/3/2 154/3/2 155/3/2
f 155/3/2 154/3/2 156/3/2
f 151/3/2 152/3/2 157/3/2
f 153/3/2 155/3/2 158/3/2
f 158/3/2 155/3/2 159/3/2
f 159/3/2 155/3/2 161/3/2
f 157/3/2 158/3/2 162/3/2
f 160/3/2 161/3/2 163/3/2
f 151/3/2 157/3/2 164/3/2
f 162/3/2 163/3/2 164/3/2
f 157/3/2 162/3/2 164/3/2
f 163/3/2 161/3/2 165/3/2
f 164/3/2 163/3/2 165/3/2
f 161/3/2 155/3/2 165/3/2
f 151/3/2 164/3/2 166/3/2
f 156/3/2 154/3/2 167/3/2
f 151/3/2 166/3/2 168/3/2
f 166/3/2 167/3/2 168/3/2
f 167/3/2 154/3/2 169/3/2
f 168/3/2 167/3/2 169/3/2
f 170/3/2 171/3/2 172/3/2
f 172/3/2 171/3/2 173/3/2
f 173/3/2 171/3/2 174/3/2
f 174/3/2 171/3/2 175/3/2
f 173/2/2 174/2/2 178/2/2
f 178/2/2 174/2/2 179/2/2
f 179/2/2 180/2/2 181/2/2
f 181/2/2 180/2/2 182/2/2
f 179/2/2 181/2/2 183/2/2
f 183/2/2 181/2/2 184/2/2
f 176/2/2 177/2/2 186/2/2
f 185/2/2 186/2/2 187/2/2
f 186/2/2 177/2/2 188/2/2
f 187/2/2 186/2/2 188/2/2
f 170/3/2 172/3/2 189/3/2
f 175/3/2 171/3/2 190/3/2
f 170/3/2 189/3/2 191/3/2
f 189/3/2 190/3/2 191/3/2
f 190/3/2 171/3/2 192/3/2
f 191/3/2 190/3/2 192/3/2
f 195/3/3 194/3/3 193/3/3
f 196/3/3 194/3/3 195/3/3
f 198/3/3 194/3/3 196/3/3
f 199/2/3 198/2/3 197/2/3
f 200/2/3 198/2/3 199/2/3
f 201/2/3 198/2/3 200/2/3
f 202/3/3 194/3/3 198/3/3
f 202/2/3 198/2/3 201/2/3
f 205/2/3 204/2/3 203/2/3
f 206/2/3 204/2/3 205/2/3
f 208/2/3 201/2/3 200/2/3
f 209/2/3 201/2/3 208/2/3
f 211/2/3 208/2/3 207/2/3
f 212/2/3 208/2/3 211/2/3
f 213/2/3 210/2/3 209/2/3
f 214/2/3 210/2/3 213/2/3
f 215/3/3 195/3/3 193/3/3
f 216/3/3 194/3/3 202/3/3
f 217/3/3 215/3/3 193/3/3
f 217/3/3 216/3/3 215/3/3
f 218/3/3 194/3/3 216/3/3
f 218/3/3 216/3/3 217/3/3
f 221/3/3 220/3/3 219/3/3
f 222/3/3 220/3/3 221/3/3
f 223/3/3 221/3/3 219/3/3
f 227/3/3 223/3/3 219/3/3
f 227/3/3 224/3/3 223/3/3
f 228/3/3 224/3/3 227/3/3
f 229/3/3 227/3/3 219/3/3
f 230/3/3 224/3/3 228/3/3
f 231/3/3 229/3/3 219/3/3
f 231/3/3 230/3/3 229/3/3
f 232/3/3 224/3/3 230/3/3
f 232/3/3 230/3/3 231/3/3
f 233/3/3 226/3/3 225/3/3
f 234/3/3 226/3/3 233/3/3
f 235/3/3 231/3/3 219/3/3
f 236/3/3 233/3/3 232/3/3
f 237/3/3 233/3/3 236/3/3
f 238/3/3 226/3/3 234/3/3
f 239/3/3 237/3/3 236/3/3
f 239/3/3 238/3/3 237/3/3
f 239/3/3 235/3/3 219/3/3
f 239/3/3 236/3/3 235/3/3
f 240/3/3 226/3/3 238/3/3
f 240/3/3 238/3/3 239/3/3
f 243/2/3 242/2/3 241/2/3
f 244/2/3 242/2/3 243/2/3
f 249/2/3 246/2/3 245/2/3
f 250/2/3 246/2/3 249/2/3
f 251/2/3 248/2/3 247/2/3
f 252/2/3 248/2/3 251/2/3
f 255/2/3 254/2/3 253/2/3
f 256/2/3 254/2/3 255/2/3
f 259/2/3 258/2/3 257/2/3
f 260/2/3 258/2/3 259/2/3
f 263/2/3 262/2/3 261/2/3
f 264/2/3 262/2/3 263/2/3
f 267/2/3 266/2/3 265/2/3
f 268/2/3 266/2/3 267/2/3
f 271/2/3 270/2/3 269/2/3
f 272/2/3 270/2/3 271/2/3
f 275/2/3 274/2/3 273/2/3
f 276/2/3 274/2/3 275/2/3
f 280/3/3 278/3/3 277/3/3
f 281/3/3 278/3/3 280/3/3
f 283/3/3 280/3/3 279/3/3
f 284/3/3 280/3/3 283/3/3
f 285/3/3 282/3/3 281/3/3
f 286/3/3 282/3/3 285/3/3
f 287/3/3 285/3/3 284/3/3
f 288/3/3 285/3/3 287/3/3
f 289/3/4 290/3/4 292/3/4
f 292/3/4 290/3/4 293/3/4
f 291/3/4 292/3/4 295/3/4
f 295/3/4 292/3/4 296/3/4
f 293/3/4 294/3/4 297/3/4
f 297/3/4 294/3/4 298/3/4
f 296/3/4 297/3/4 299/3/4
f 299/3/4 297/3/4 300/3/4
f 301/2/4 302/2/4 303/2/4
f 303/2/4 302/2/4 304/2/4
f 305/2/4 306/2/4 307/2/4
f 307/2/4 306/2/4 308/2/4
f 309/2/4 310/2/4 311/2/4
f 311/2/4 310/2/4 312/2/4
f 313/2/4 314/2/4 315/2/4
f 315/2/4 314/2/4 316/2/4
f 317/2/4 318/2/4 319/2/4
f 319/2/4 318/2/4 320/2/4
f 321/2/4 322/2/4 323/2/4
f 323/2/4 322/2/4 324/2/4
f 325/2/4 326/2/4 327/2/4
f 327/2/4 326/2/4 328/2/4
f 329/2/4 330/2/4 331/2/4
f 331/2/4 330/2/4 332/2/4
f 333/2/4 334/2/4 335/2/4
f 335/2/4 334/2/4 336/2/4
f 337/2/4 338/2/4 339/2/4
f 339/2/4 338/2/4 340/2/4
f 341/3/4 342/3/4 343/3/4
f 343/3/4 342/3/4 344/3/4
f 344/3/4 342/3/4 345/3/4
f 345/3/4 342/3/4 346/3/4
f 346/3/4 342/3/4 347/3/4
f 347/3/4 342/3/4 348/3/4
f 341/3/4 343/3/4 349/3/4
f 344/3/4 345/3/4 350/3/4
f 341/3/4 349/3/4 351/3/4
f 349/3/4 350/3/4 351/3/4
f 350/3/4 345/3/4 352/3/4
f 351/3/4 350/3/4 352/3/4
f 352/3/4 345/3/4 353/3/4
f 346/3/4 347/3/4 354/3/4
f 352/3/4 353/3/4 355/3/4
f 353/3/4 354/3/4 355/3/4
f 354/3/4 347/3/4 356/3/4
f 355/3/4 354/3/4 356/3/4
f 341/3/4 351/3/4 357/3/4
f 356/3/4 347/3/4 358/3/4
f 358/3/4 347/3/4 359/3/4
f 348/3/4 342/3/4 360/3/4
f 358/3/4 359/3/4 361/3/4
f 359/3/4 360/3/4 361/3/4
f 341/3/4 357/3/4 361/3/4
f 357/3/4 358/3/4 361/3/4
f 360/3/4 342/3/4 362/3/4
f 361/3/4 360/3/4 362/3/4
f 363/3/4 364/3/4 365/3/4
f 365/3/4 364/3/4 366/3/4
f 367/2/4 368/2/4 373/2/4
f 373/2/4 368/2/4 374/2/4
f 369/2/4 370/2/4 377/2/4
f 377/2/4 370/2/4 378/2/4
f 375/2/4 376/2/4 379/2/4
f 375/2/4 379/2/4 381/2/4
f 379/2/4 380/2/4 381/2/4
f 381/2/4 380/2/4 382/2/4
f 371/2/4 372/2/4 383/2/4
f 383/2/4 372/2/4 384/2/4
f 363/3/4 365/3/4 385/3/4
f 366/3/4 364/3/4 386/3/4
f 363/3/4 385/3/4 387/3/4
f 385/3/4 386/3/4 387/3/4
f 386/3/4 364/3/4 388/3/4
f 387/3/4 386/3/4 388/3/4
f 391/3/5 390/3/5 389/3/5
f 392/3/5 390/3/5 391/3/5
f 393/3/5 391/3/5 389/3/5
f 394/3/5 390/3/5 392/3/5
f 395/3/5 393/3/5 389/3/5
f 395/3/5 394/3/5 393/3/5
f 396/3/5 390/3/5 394/3/5
f 396/3/5 394/3/5 395/3/5
f 399/3/5 398/3/5 397/3/5
f 400/3/5 398/3/5 399/3/5
f 405/2/5 402/2/5 401/2/5
f 406/2/5 402/2/5 405/2/5
f 407/2/5 404/2/5 403/2/5
f 408/2/5 404/2/5 407/2/5
f 411/2/5 410/2/5 409/2/5
f 412/2/5 410/2/5 411/2/5
f 415/2/5 414/2/5 413/2/5
f 416/2/5 414/2/5 415/2/5
f 421/2/5 418/2/5 417/2/5
f 422/2/5 418/2/5 421/2/5
f 423/2/5 420/2/5 419/2/5
f 424/2/5 420/2/5 423/2/5
f 427/2/5 426/2/5 425/2/5
f 428/2/5 426/2/5 427/2/5
f 431/2/5 430/2/5 429/2/5
f 432/2/5 430/2/5 431/2/5
f 435/2/5 434/2/5 433/2/5
f 436/2/5 434/2/5 435/2/5
f 439/2/5 438/2/5 437/2/5
f 440/2/5 438/2/5 439/2/5
f 443/2/5 442/2/5 441/2/5
f 444/2/5 442/2/5 443/2/5
f 447/2/5 446/2/5 445/2/5
f 448/2/5 446/2/5 447/2/5
f 451/2/5 450/2/5 449/2/5
f 452/2/5 450/2/5 451/2/5
f 455/2/5 454/2/5 453/2/5
f 456/2/5 454/2/5 455/2/5
f 459/2/5 458/2/5 457/2/5
f 460/2/5 458/2/5 459/2/5
f 463/2/5 462/2/5 461/2/5
f 464/2/5 462/2/5 463/2/5
f 467/2/5 466/2/5 465/2/5
f 468/2/5 466/2/5 467/2/5
f 474/3/5 470/3/5 469/3/5
f 475/3/5 470/3/5 474/3/5
f 476/3/5 472/3/5 471/3/5
f 477/3/5 472/3/5 476/3/5
f 479/3/5 474/3/5 473/3/5
f 480/3/5 474/3/5 479/3/5
f 481/3/5 478/3/5 477/3/5
f 482/3/5 478/3/5 481/3/5
f 483/3/5 481/3/5 480/3/5
f 484/3/5 481/3/5 483/3/5
f 485/3/6 486/3/6 488/3/6
f 488/3/6 486/3/6 489/3/6
f 489/3/6 490/3/6 491/3/6
f 491/3/6 490/3/6 492/3/6
f 487/3/6 488/3/6 495/3/6
f 495/3/6 488/3/6 496/3/6
f 493/3/6 494/3/6 497/3/6
f 497/3/6 494/3/6 498/3/6
f 496/3/6 497/3/6 499/3/6
f 499/3/6 497/3/6 500/3/6
f 501/2/6 502/2/6 503/2/6
f 503/2/6 502/2/6 504/2/6
f 505/2/6 506/2/6 509/2/6
f 509/2/6 506/2/6 510/2/6
f 507/2/6 508/2/6 511/2/6
f 511/2/6 508/2/6 512/2/6
f 513/2/6 514/2/6 517/2/6
f 517/2/6 514/2/6 518/2/6
f 515/2/6 516/2/6 519/2/6
f 519/2/6 516/2/6 520/2/6
f 521/2/6 522/2/6 523/2/6
f 523/2/6 522/2/6 524/2/6
f 525/2/6 526/2/6 527/2/6
f 527/2/6 526/2/6 528/2/6
f 531/2/6 532/2/6 533/2/6
f 533/2/6 532/2/6 534/2/6
f 529/2/6 530/2/6 535/2/6
f 535/2/6 530/2/6 536/2/6
f 537/2/6 538/2/6 539/2/6
f 539/2/6 538/2/6 540/2/6
f 541/2/6 542/2/6 545/2/6
f 545/2/6 542/2/6 546/2/6
f 543/2/6 544/2/6 547/2/6
f 547/2/6 544/2/6 548/2/6
f 549/2/6 550/2/6 551/2/6
f 551/2/6 550/2/6 552/2/6
f 553/2/6 554/2/6 555/2/6
f 555/2/6 554/2/6 556/2/6
f 557/2/6 558/2/6 559/2/6
f 559/2/6 558/2/6 560/2/6
f 561/2/6 562/2/6 563/2/6
f 563/2/6 562/2/6 564/2/6
f 565/2/6 566/2/6 569/2/6
f 569/2/6 566/2/6 570/2/6
f 567/2/6 568/2/6 571/2/6
f 571/2/6 568/2/6 572/2/6
f 573/2/6 574/2/6 575/2/6
f 575/2/6 574/2/6 576/2/6
f 577/3/6 578/3/6 579/3/6
f 579/3/6 578/3/6 580/3/6
f 581/3/6 582/3/6 583/3/6
f 583/3/6 582/3/6 584/3/6
f 581/3/6 583/3/6 585/3/6
f 584/3/6 582/3/6 586/3/6
f 581/3/6 585/3/6 587/3/6
f 585/3/6 586/3/6 587/3/6
f 586/3/6 582/3/6 588/3/6
f 587/3/6 586/3/6 588/3/6
