# MagicaVoxel @ Ephtracy

# group
o 

# material
mtllib box1GR6.mtl
usemtl palette

# normals
vn -1 0 0
vn 1 0 0
vn 0 0 1
vn 0 0 -1
vn 0 -1 0
vn 0 1 0

# texcoords
vt 0.185547 0.5
vt 0.982422 0.5
vt 0.990234 0.5

# verts
v -0.5 0 0.6
v -0.5 0 -0.6
v -0.5 0.1 0.5
v -0.5 0.1 0.2
v -0.5 0.1 0.1
v -0.5 0.1 -0.5
v -0.5 0.2 0.4
v -0.5 0.2 0.3
v -0.5 0.2 0.2
v -0.5 0.2 0.1
v -0.5 0.2 -0.1
v -0.5 0.3 0.4
v -0.5 0.3 0.3
v -0.5 0.3 0.1
v -0.5 0.3 -0.1
v -0.5 0.3 -0.3
v -0.5 0.4 0.4
v -0.5 0.4 0.3
v -0.5 0.4 0.2
v -0.5 0.4 0.1
v -0.5 0.4 -0.1
v -0.5 0.4 -0.3
v -0.5 0.5 0.2
v -0.5 0.5 0.1
v -0.5 0.5 -0.1
v -0.5 0.6 0.1
v -0.5 0.6 -0.1
v -0.5 0.6 -0.3
v -0.5 0.7 0.4
v -0.5 0.7 0.3
v -0.5 0.7 -0.1
v -0.5 0.7 -0.3
v -0.5 0.8 0.5
v -0.5 0.8 -0.5
v -0.5 0.9 0.6
v -0.5 0.9 -0.6
v -0.4 0.1 0.5
v -0.4 0.1 0.2
v -0.4 0.1 0.1
v -0.4 0.1 -0.5
v -0.4 0.2 0.4
v -0.4 0.2 0.3
v -0.4 0.2 0.2
v -0.4 0.2 0.1
v -0.4 0.2 -0.1
v -0.4 0.3 0.4
v -0.4 0.3 0.3
v -0.4 0.3 0.1
v -0.4 0.3 -0.1
v -0.4 0.3 -0.3
v -0.4 0.4 0.4
v -0.4 0.4 0.3
v -0.4 0.4 0.2
v -0.4 0.4 0.1
v -0.4 0.4 -0.1
v -0.4 0.4 -0.3
v -0.4 0.5 0.2
v -0.4 0.5 0.1
v -0.4 0.5 -0.1
v -0.4 0.6 0.1
v -0.4 0.6 -0.1
v -0.4 0.6 -0.3
v -0.4 0.7 0.4
v -0.4 0.7 0.3
v -0.4 0.7 -0.1
v -0.4 0.7 -0.3
v -0.4 0.8 0.5
v -0.4 0.8 -0.5
v -0.2 0.2 0.6
v -0.2 0.2 0.5
v -0.2 0.3 0.6
v -0.2 0.3 0.5
v -0.2 0.4 0.6
v -0.2 0.4 0.5
v -0.2 0.4 -0.5
v -0.2 0.4 -0.6
v -0.2 0.5 0.6
v -0.2 0.5 0.5
v -0.2 0.6 0.6
v -0.2 0.6 0.5
v -0.2 0.7 0.6
v -0.2 0.7 0.5
v -0.2 0.7 -0.5
v -0.2 0.7 -0.6
v -0.1 0.3 0.6
v -0.1 0.3 0.5
v -0.1 0.4 0.6
v -0.1 0.4 0.5
v 4.47035e-008 0.2 0.6
v 4.47035e-008 0.2 0.5
v 4.47035e-008 0.2 -0.5
v 4.47035e-008 0.2 -0.6
v 4.47035e-008 0.3 0.6
v 4.47035e-008 0.3 0.5
v 4.47035e-008 0.5 -0.5
v 4.47035e-008 0.5 -0.6
v 0.2 0.2 -0.5
v 0.2 0.2 -0.6
v 0.2 0.5 0.6
v 0.2 0.5 0.5
v 0.2 0.6 0.6
v 0.2 0.6 0.5
v 0.2 0.7 -0.5
v 0.2 0.7 -0.6
v 0.3 0.3 0.6
v 0.3 0.3 0.5
v 0.3 0.5 0.6
v 0.3 0.5 0.5
v 0.5 0 0.5
v 0.5 0 -0.5
v 0.5 0.1 0.6
v 0.5 0.1 0.5
v 0.5 0.1 -0.5
v 0.5 0.1 -0.6
v 0.5 0.8 0.6
v 0.5 0.8 0.5
v 0.5 0.8 -0.5
v 0.5 0.8 -0.6
v 0.5 0.9 0.5
v 0.5 0.9 -0.5
v -0.4 0 0.5
v -0.4 0 -0.5
v -0.4 0.1 0.6
v -0.4 0.1 0.5
v -0.4 0.1 -0.5
v -0.4 0.1 -0.6
v -0.4 0.8 0.6
v -0.4 0.8 0.5
v -0.4 0.8 -0.5
v -0.4 0.8 -0.6
v -0.4 0.9 0.5
v -0.4 0.9 -0.5
v -0.1 0.2 0.6
v -0.1 0.2 0.5
v -0.1 0.3 0.6
v -0.1 0.3 0.5
v -0.1 0.4 0.6
v -0.1 0.4 0.5
v -0.1 0.4 -0.5
v -0.1 0.4 -0.6
v -0.1 0.5 0.6
v -0.1 0.5 0.5
v -0.1 0.7 -0.5
v -0.1 0.7 -0.6
v 4.47035e-008 0.3 0.6
v 4.47035e-008 0.3 0.5
v 4.47035e-008 0.4 0.6
v 4.47035e-008 0.4 0.5
v 0.1 0.2 0.6
v 0.1 0.2 0.5
v 0.1 0.2 -0.5
v 0.1 0.2 -0.6
v 0.1 0.3 0.6
v 0.1 0.3 0.5
v 0.1 0.5 -0.5
v 0.1 0.5 -0.6
v 0.3 0.2 -0.5
v 0.3 0.2 -0.6
v 0.3 0.5 0.6
v 0.3 0.5 0.5
v 0.3 0.7 0.6
v 0.3 0.7 0.5
v 0.3 0.7 -0.5
v 0.3 0.7 -0.6
v 0.4 0.3 0.6
v 0.4 0.3 0.5
v 0.4 0.5 0.6
v 0.4 0.5 0.5
v 0.5 0.1 0.5
v 0.5 0.1 -0.5
v 0.5 0.2 0.3
v 0.5 0.2 -2.23517e-008
v 0.5 0.3 0.3
v 0.5 0.3 -2.23517e-008
v 0.5 0.4 0.1
v 0.5 0.4 -0.4
v 0.5 0.5 0.1
v 0.5 0.5 -0.3
v 0.5 0.6 0.3
v 0.5 0.6 -0.1
v 0.5 0.7 0.3
v 0.5 0.7 -0.1
v 0.5 0.7 -0.3
v 0.5 0.7 -0.4
v 0.5 0.8 0.5
v 0.5 0.8 -0.5
v 0.6 0 0.6
v 0.6 0 -0.6
v 0.6 0.1 0.5
v 0.6 0.1 -0.5
v 0.6 0.2 0.3
v 0.6 0.2 -2.23517e-008
v 0.6 0.3 0.3
v 0.6 0.3 -2.23517e-008
v 0.6 0.4 0.1
v 0.6 0.4 -0.4
v 0.6 0.5 0.1
v 0.6 0.5 -0.3
v 0.6 0.6 0.3
v 0.6 0.6 -0.1
v 0.6 0.7 0.3
v 0.6 0.7 -0.1
v 0.6 0.7 -0.3
v 0.6 0.7 -0.4
v 0.6 0.8 0.5
v 0.6 0.8 -0.5
v 0.6 0.9 0.6
v 0.6 0.9 -0.6
v -0.5 0 0.6
v -0.5 0.9 0.6
v -0.4 0.1 0.6
v -0.4 0.8 0.6
v -0.2 0.2 0.6
v -0.2 0.3 0.6
v -0.2 0.4 0.6
v -0.2 0.5 0.6
v -0.2 0.6 0.6
v -0.2 0.7 0.6
v -0.1 0.2 0.6
v -0.1 0.3 0.6
v -0.1 0.4 0.6
v -0.1 0.5 0.6
v 4.47035e-008 0.2 0.6
v 4.47035e-008 0.3 0.6
v 4.47035e-008 0.4 0.6
v 0.1 0.2 0.6
v 0.1 0.3 0.6
v 0.2 0.5 0.6
v 0.2 0.6 0.6
v 0.3 0.3 0.6
v 0.3 0.5 0.6
v 0.3 0.7 0.6
v 0.4 0.3 0.6
v 0.4 0.5 0.6
v 0.5 0.1 0.6
v 0.5 0.8 0.6
v 0.6 0 0.6
v 0.6 0.9 0.6
v -0.4 0.1 0.5
v -0.4 0.8 0.5
v -0.2 0.2 0.5
v -0.2 0.3 0.5
v -0.2 0.4 0.5
v -0.2 0.5 0.5
v -0.2 0.6 0.5
v -0.2 0.7 0.5
v -0.1 0.2 0.5
v -0.1 0.3 0.5
v -0.1 0.4 0.5
v -0.1 0.5 0.5
v 4.47035e-008 0.2 0.5
v 4.47035e-008 0.3 0.5
v 4.47035e-008 0.4 0.5
v 0.1 0.2 0.5
v 0.1 0.3 0.5
v 0.2 0.5 0.5
v 0.2 0.6 0.5
v 0.3 0.3 0.5
v 0.3 0.5 0.5
v 0.3 0.7 0.5
v 0.4 0.3 0.5
v 0.4 0.5 0.5
v 0.5 0.1 0.5
v 0.5 0.8 0.5
v -0.5 0.2 0.4
v -0.5 0.3 0.4
v -0.5 0.4 0.4
v -0.5 0.7 0.4
v -0.4 0.2 0.4
v -0.4 0.3 0.4
v -0.4 0.4 0.4
v -0.4 0.7 0.4
v 0.5 0.2 0.3
v 0.5 0.3 0.3
v 0.5 0.6 0.3
v 0.5 0.7 0.3
v 0.6 0.2 0.3
v 0.6 0.3 0.3
v 0.6 0.6 0.3
v 0.6 0.7 0.3
v -0.5 0.1 0.2
v -0.5 0.2 0.2
v -0.5 0.4 0.2
v -0.5 0.5 0.2
v -0.4 0.1 0.2
v -0.4 0.2 0.2
v -0.4 0.4 0.2
v -0.4 0.5 0.2
v -0.5 0.2 0.1
v -0.5 0.3 0.1
v -0.5 0.5 0.1
v -0.5 0.6 0.1
v -0.4 0.2 0.1
v -0.4 0.3 0.1
v -0.4 0.5 0.1
v -0.4 0.6 0.1
v 0.5 0.4 0.1
v 0.5 0.5 0.1
v 0.6 0.4 0.1
v 0.6 0.5 0.1
v -0.5 0.3 -0.1
v -0.5 0.4 -0.1
v -0.5 0.6 -0.1
v -0.5 0.7 -0.1
v -0.4 0.3 -0.1
v -0.4 0.4 -0.1
v -0.4 0.6 -0.1
v -0.4 0.7 -0.1
v 0.5 0.5 -0.3
v 0.5 0.7 -0.3
v 0.6 0.5 -0.3
v 0.6 0.7 -0.3
v -0.5 0.1 -0.5
v -0.5 0.8 -0.5
v -0.4 0 -0.5
v -0.4 0.1 -0.5
v -0.4 0.8 -0.5
v -0.4 0.9 -0.5
v 0.5 0 -0.5
v 0.5 0.1 -0.5
v 0.5 0.8 -0.5
v 0.5 0.9 -0.5
v 0.6 0.1 -0.5
v 0.6 0.8 -0.5
v -0.5 0.1 0.5
v -0.5 0.8 0.5
v -0.4 0 0.5
v -0.4 0.1 0.5
v -0.4 0.8 0.5
v -0.4 0.9 0.5
v 0.5 0 0.5
v 0.5 0.1 0.5
v 0.5 0.8 0.5
v 0.5 0.9 0.5
v 0.6 0.1 0.5
v 0.6 0.8 0.5
v -0.5 0.2 0.3
v -0.5 0.3 0.3
v -0.5 0.4 0.3
v -0.5 0.7 0.3
v -0.4 0.2 0.3
v -0.4 0.3 0.3
v -0.4 0.4 0.3
v -0.4 0.7 0.3
v -0.5 0.1 0.1
v -0.5 0.2 0.1
v -0.5 0.4 0.1
v -0.5 0.5 0.1
v -0.4 0.1 0.1
v -0.4 0.2 0.1
v -0.4 0.4 0.1
v -0.4 0.5 0.1
v 0.5 0.2 -2.23517e-008
v 0.5 0.3 -2.23517e-008
v 0.6 0.2 -2.23517e-008
v 0.6 0.3 -2.23517e-008
v -0.5 0.2 -0.1
v -0.5 0.3 -0.1
v -0.5 0.5 -0.1
v -0.5 0.6 -0.1
v -0.4 0.2 -0.1
v -0.4 0.3 -0.1
v -0.4 0.5 -0.1
v -0.4 0.6 -0.1
v 0.5 0.6 -0.1
v 0.5 0.7 -0.1
v 0.6 0.6 -0.1
v 0.6 0.7 -0.1
v -0.5 0.3 -0.3
v -0.5 0.4 -0.3
v -0.5 0.6 -0.3
v -0.5 0.7 -0.3
v -0.4 0.3 -0.3
v -0.4 0.4 -0.3
v -0.4 0.6 -0.3
v -0.4 0.7 -0.3
v 0.5 0.4 -0.4
v 0.5 0.7 -0.4
v 0.6 0.4 -0.4
v 0.6 0.7 -0.4
v -0.4 0.1 -0.5
v -0.4 0.8 -0.5
v -0.2 0.4 -0.5
v -0.2 0.7 -0.5
v -0.1 0.4 -0.5
v -0.1 0.7 -0.5
v 4.47035e-008 0.2 -0.5
v 4.47035e-008 0.5 -0.5
v 0.1 0.2 -0.5
v 0.1 0.5 -0.5
v 0.2 0.2 -0.5
v 0.2 0.7 -0.5
v 0.3 0.2 -0.5
v 0.3 0.7 -0.5
v 0.5 0.1 -0.5
v 0.5 0.8 -0.5
v -0.5 0 -0.6
v -0.5 0.9 -0.6
v -0.4 0.1 -0.6
v -0.4 0.8 -0.6
v -0.2 0.4 -0.6
v -0.2 0.7 -0.6
v -0.1 0.4 -0.6
v -0.1 0.7 -0.6
v 4.47035e-008 0.2 -0.6
v 4.47035e-008 0.5 -0.6
v 0.1 0.2 -0.6
v 0.1 0.5 -0.6
v 0.2 0.2 -0.6
v 0.2 0.7 -0.6
v 0.3 0.2 -0.6
v 0.3 0.7 -0.6
v 0.5 0.1 -0.6
v 0.5 0.8 -0.6
v 0.6 0 -0.6
v 0.6 0.9 -0.6
v -0.5 0 0.6
v 0.6 0 0.6
v -0.4 0 0.5
v 0.5 0 0.5
v -0.4 0 -0.5
v 0.5 0 -0.5
v -0.5 0 -0.6
v 0.6 0 -0.6
v -0.4 0.1 0.5
v 0.5 0.1 0.5
v -0.4 0.1 -0.5
v 0.5 0.1 -0.5
v -0.2 0.2 0.6
v -0.1 0.2 0.6
v 4.47035e-008 0.2 0.6
v 0.1 0.2 0.6
v -0.2 0.2 0.5
v -0.1 0.2 0.5
v 4.47035e-008 0.2 0.5
v 0.1 0.2 0.5
v -0.5 0.2 0.4
v -0.4 0.2 0.4
v -0.5 0.2 0.3
v -0.4 0.2 0.3
v 0.5 0.2 0.3
v 0.6 0.2 0.3
v -0.5 0.2 0.1
v -0.4 0.2 0.1
v 0.5 0.2 -2.23517e-008
v 0.6 0.2 -2.23517e-008
v -0.5 0.2 -0.1
v -0.4 0.2 -0.1
v 4.47035e-008 0.2 -0.5
v 0.1 0.2 -0.5
v 0.2 0.2 -0.5
v 0.3 0.2 -0.5
v 4.47035e-008 0.2 -0.6
v 0.1 0.2 -0.6
v 0.2 0.2 -0.6
v 0.3 0.2 -0.6
v -0.1 0.3 0.6
v 4.47035e-008 0.3 0.6
v 0.3 0.3 0.6
v 0.4 0.3 0.6
v -0.1 0.3 0.5
v 4.47035e-008 0.3 0.5
v 0.3 0.3 0.5
v 0.4 0.3 0.5
v -0.5 0.3 -0.1
v -0.4 0.3 -0.1
v -0.5 0.3 -0.3
v -0.4 0.3 -0.3
v -0.2 0.4 0.6
v -0.1 0.4 0.6
v -0.2 0.4 0.5
v -0.1 0.4 0.5
v -0.5 0.4 0.4
v -0.4 0.4 0.4
v -0.5 0.4 0.3
v -0.4 0.4 0.3
v -0.5 0.4 0.2
v -0.4 0.4 0.2
v -0.5 0.4 0.1
v -0.4 0.4 0.1
v 0.5 0.4 0.1
v 0.6 0.4 0.1
v 0.5 0.4 -0.4
v 0.6 0.4 -0.4
v -0.2 0.4 -0.5
v -0.1 0.4 -0.5
v -0.2 0.4 -0.6
v -0.1 0.4 -0.6
v 0.2 0.5 0.6
v 0.3 0.5 0.6
v 0.2 0.5 0.5
v 0.3 0.5 0.5
v -0.5 0.5 0.1
v -0.4 0.5 0.1
v -0.5 0.5 -0.1
v -0.4 0.5 -0.1
v -0.2 0.6 0.6
v 0.2 0.6 0.6
v -0.2 0.6 0.5
v 0.2 0.6 0.5
v 0.5 0.6 0.3
v 0.6 0.6 0.3
v -0.5 0.6 -0.1
v -0.4 0.6 -0.1
v 0.5 0.6 -0.1
v 0.6 0.6 -0.1
v -0.5 0.6 -0.3
v -0.4 0.6 -0.3
v -0.4 0.8 0.6
v 0.5 0.8 0.6
v -0.5 0.8 0.5
v -0.4 0.8 0.5
v 0.5 0.8 0.5
v 0.6 0.8 0.5
v -0.5 0.8 -0.5
v -0.4 0.8 -0.5
v 0.5 0.8 -0.5
v 0.6 0.8 -0.5
v -0.4 0.8 -0.6
v 0.5 0.8 -0.6
v -0.4 0.1 0.6
v 0.5 0.1 0.6
v -0.5 0.1 0.5
v -0.4 0.1 0.5
v 0.5 0.1 0.5
v 0.6 0.1 0.5
v -0.5 0.1 0.2
v -0.4 0.1 0.2
v -0.5 0.1 0.1
v -0.4 0.1 0.1
v -0.5 0.1 -0.5
v -0.4 0.1 -0.5
v 0.5 0.1 -0.5
v 0.6 0.1 -0.5
v -0.4 0.1 -0.6
v 0.5 0.1 -0.6
v -0.5 0.2 0.2
v -0.4 0.2 0.2
v -0.5 0.2 0.1
v -0.4 0.2 0.1
v -0.2 0.3 0.6
v -0.1 0.3 0.6
v 4.47035e-008 0.3 0.6
v 0.1 0.3 0.6
v -0.2 0.3 0.5
v -0.1 0.3 0.5
v 4.47035e-008 0.3 0.5
v 0.1 0.3 0.5
v -0.5 0.3 0.4
v -0.4 0.3 0.4
v -0.5 0.3 0.3
v -0.4 0.3 0.3
v 0.5 0.3 0.3
v 0.6 0.3 0.3
v -0.5 0.3 0.1
v -0.4 0.3 0.1
v 0.5 0.3 -2.23517e-008
v 0.6 0.3 -2.23517e-008
v -0.5 0.3 -0.1
v -0.4 0.3 -0.1
v -0.1 0.4 0.6
v 4.47035e-008 0.4 0.6
v -0.1 0.4 0.5
v 4.47035e-008 0.4 0.5
v -0.5 0.4 -0.1
v -0.4 0.4 -0.1
v -0.5 0.4 -0.3
v -0.4 0.4 -0.3
v -0.2 0.5 0.6
v -0.1 0.5 0.6
v 0.3 0.5 0.6
v 0.4 0.5 0.6
v -0.2 0.5 0.5
v -0.1 0.5 0.5
v 0.3 0.5 0.5
v 0.4 0.5 0.5
v -0.5 0.5 0.2
v -0.4 0.5 0.2
v -0.5 0.5 0.1
v -0.4 0.5 0.1
v 0.5 0.5 0.1
v 0.6 0.5 0.1
v 0.5 0.5 -0.3
v 0.6 0.5 -0.3
v 4.47035e-008 0.5 -0.5
v 0.1 0.5 -0.5
v 4.47035e-008 0.5 -0.6
v 0.1 0.5 -0.6
v -0.5 0.6 0.1
v -0.4 0.6 0.1
v -0.5 0.6 -0.1
v -0.4 0.6 -0.1
v -0.2 0.7 0.6
v 0.3 0.7 0.6
v -0.2 0.7 0.5
v 0.3 0.7 0.5
v -0.5 0.7 0.4
v -0.4 0.7 0.4
v -0.5 0.7 0.3
v -0.4 0.7 0.3
v 0.5 0.7 0.3
v 0.6 0.7 0.3
v -0.5 0.7 -0.1
v -0.4 0.7 -0.1
v 0.5 0.7 -0.1
v 0.6 0.7 -0.1
v -0.5 0.7 -0.3
v -0.4 0.7 -0.3
v 0.5 0.7 -0.3
v 0.6 0.7 -0.3
v 0.5 0.7 -0.4
v 0.6 0.7 -0.4
v -0.2 0.7 -0.5
v -0.1 0.7 -0.5
v 0.2 0.7 -0.5
v 0.3 0.7 -0.5
v -0.2 0.7 -0.6
v -0.1 0.7 -0.6
v 0.2 0.7 -0.6
v 0.3 0.7 -0.6
v -0.4 0.8 0.5
v 0.5 0.8 0.5
v -0.4 0.8 -0.5
v 0.5 0.8 -0.5
v -0.5 0.9 0.6
v 0.6 0.9 0.6
v -0.4 0.9 0.5
v 0.5 0.9 0.5
v -0.4 0.9 -0.5
v 0.5 0.9 -0.5
v -0.5 0.9 -0.6
v 0.6 0.9 -0.6

# faces
f 3/3/1 2/3/1 1/3/1
f 4/3/1 2/3/1 3/3/1
f 5/3/1 2/3/1 4/3/1
f 6/3/1 2/3/1 5/3/1
f 9/3/1 5/3/1 4/3/1
f 10/3/1 5/3/1 9/3/1
f 12/3/1 8/3/1 7/3/1
f 13/3/1 8/3/1 12/3/1
f 14/3/1 11/3/1 10/3/1
f 15/3/1 11/3/1 14/3/1
f 21/3/1 16/3/1 15/3/1
f 22/3/1 16/3/1 21/3/1
f 23/3/1 20/3/1 19/3/1
f 24/3/1 20/3/1 23/3/1
f 26/3/1 25/3/1 24/3/1
f 27/3/1 25/3/1 26/3/1
f 29/3/1 18/3/1 17/3/1
f 30/3/1 18/3/1 29/3/1
f 31/3/1 28/3/1 27/3/1
f 32/3/1 28/3/1 31/3/1
f 33/3/1 3/3/1 1/3/1
f 34/3/1 2/3/1 6/3/1
f 35/3/1 33/3/1 1/3/1
f 35/3/1 34/3/1 33/3/1
f 36/3/1 2/3/1 34/3/1
f 36/3/1 34/3/1 35/3/1
f 41/2/1 38/2/1 37/2/1
f 42/2/1 38/2/1 41/2/1
f 43/2/1 38/2/1 42/2/1
f 44/2/1 40/2/1 39/2/1
f 45/2/1 40/2/1 44/2/1
f 46/2/1 41/2/1 37/2/1
f 47/2/1 43/2/1 42/2/1
f 47/2/1 44/2/1 43/2/1
f 48/2/1 44/2/1 47/2/1
f 49/2/1 40/2/1 45/2/1
f 50/2/1 40/2/1 49/2/1
f 51/2/1 46/2/1 37/2/1
f 51/2/1 48/2/1 47/2/1
f 51/2/1 49/2/1 48/2/1
f 51/2/1 47/2/1 46/2/1
f 52/2/1 49/2/1 51/2/1
f 53/2/1 49/2/1 52/2/1
f 54/2/1 49/2/1 53/2/1
f 55/2/1 49/2/1 54/2/1
f 56/2/1 40/2/1 50/2/1
f 57/2/1 53/2/1 52/2/1
f 58/2/1 55/2/1 54/2/1
f 58/2/1 56/2/1 55/2/1
f 59/2/1 56/2/1 58/2/1
f 60/2/1 58/2/1 57/2/1
f 61/2/1 56/2/1 59/2/1
f 62/2/1 40/2/1 56/2/1
f 62/2/1 56/2/1 61/2/1
f 63/2/1 51/2/1 37/2/1
f 64/2/1 57/2/1 52/2/1
f 64/2/1 61/2/1 60/2/1
f 64/2/1 60/2/1 57/2/1
f 65/2/1 61/2/1 64/2/1
f 66/2/1 40/2/1 62/2/1
f 67/2/1 63/2/1 37/2/1
f 67/2/1 66/2/1 65/2/1
f 67/2/1 65/2/1 64/2/1
f 67/2/1 64/2/1 63/2/1
f 68/2/1 40/2/1 66/2/1
f 68/2/1 66/2/1 67/2/1
f 71/3/1 70/3/1 69/3/1
f 72/3/1 70/3/1 71/3/1
f 77/3/1 74/3/1 73/3/1
f 78/3/1 74/3/1 77/3/1
f 81/3/1 80/3/1 79/3/1
f 82/3/1 80/3/1 81/3/1
f 83/3/1 76/3/1 75/3/1
f 84/3/1 76/3/1 83/3/1
f 87/3/1 86/3/1 85/3/1
f 88/3/1 86/3/1 87/3/1
f 93/3/1 90/3/1 89/3/1
f 94/3/1 90/3/1 93/3/1
f 95/3/1 92/3/1 91/3/1
f 96/3/1 92/3/1 95/3/1
f 101/3/1 100/3/1 99/3/1
f 102/3/1 100/3/1 101/3/1
f 103/3/1 98/3/1 97/3/1
f 104/3/1 98/3/1 103/3/1
f 107/3/1 106/3/1 105/3/1
f 108/3/1 106/3/1 107/3/1
f 112/3/1 110/3/1 109/3/1
f 113/3/1 110/3/1 112/3/1
f 115/3/1 112/3/1 111/3/1
f 116/3/1 112/3/1 115/3/1
f 117/3/1 114/3/1 113/3/1
f 118/3/1 114/3/1 117/3/1
f 119/3/1 117/3/1 116/3/1
f 120/3/1 117/3/1 119/3/1
f 121/3/2 122/3/2 124/3/2
f 124/3/2 122/3/2 125/3/2
f 123/3/2 124/3/2 127/3/2
f 127/3/2 124/3/2 128/3/2
f 125/3/2 126/3/2 129/3/2
f 129/3/2 126/3/2 130/3/2
f 128/3/2 129/3/2 131/3/2
f 131/3/2 129/3/2 132/3/2
f 133/3/2 134/3/2 135/3/2
f 135/3/2 134/3/2 136/3/2
f 137/3/2 138/3/2 141/3/2
f 141/3/2 138/3/2 142/3/2
f 139/3/2 140/3/2 143/3/2
f 143/3/2 140/3/2 144/3/2
f 145/3/2 146/3/2 147/3/2
f 147/3/2 146/3/2 148/3/2
f 149/3/2 150/3/2 153/3/2
f 153/3/2 150/3/2 154/3/2
f 151/3/2 152/3/2 155/3/2
f 155/3/2 152/3/2 156/3/2
f 159/3/2 160/3/2 161/3/2
f 161/3/2 160/3/2 162/3/2
f 157/3/2 158/3/2 163/3/2
f 163/3/2 158/3/2 164/3/2
f 165/3/2 166/3/2 167/3/2
f 167/3/2 166/3/2 168/3/2
f 169/2/2 170/2/2 171/2/2
f 171/2/2 170/2/2 172/2/2
f 169/2/2 171/2/2 173/2/2
f 172/2/2 170/2/2 174/2/2
f 173/2/2 174/2/2 175/2/2
f 174/2/2 170/2/2 176/2/2
f 175/2/2 174/2/2 176/2/2
f 173/2/2 175/2/2 177/2/2
f 169/2/2 173/2/2 179/2/2
f 177/2/2 178/2/2 179/2/2
f 173/2/2 177/2/2 179/2/2
f 179/2/2 178/2/2 180/2/2
f 169/2/2 179/2/2 181/2/2
f 180/2/2 178/2/2 182/2/2
f 182/2/2 178/2/2 183/2/2
f 176/2/2 170/2/2 184/2/2
f 182/2/2 183/2/2 185/2/2
f 183/2/2 184/2/2 185/2/2
f 169/2/2 181/2/2 185/2/2
f 181/2/2 182/2/2 185/2/2
f 184/2/2 170/2/2 186/2/2
f 185/2/2 184/2/2 186/2/2
f 187/3/2 188/3/2 189/3/2
f 189/3/2 188/3/2 190/3/2
f 191/3/2 192/3/2 193/3/2
f 193/3/2 192/3/2 194/3/2
f 195/3/2 196/3/2 197/3/2
f 197/3/2 196/3/2 198/3/2
f 199/3/2 200/3/2 201/3/2
f 201/3/2 200/3/2 202/3/2
f 198/3/2 196/3/2 203/3/2
f 203/3/2 196/3/2 204/3/2
f 187/3/2 189/3/2 205/3/2
f 190/3/2 188/3/2 206/3/2
f 187/3/2 205/3/2 207/3/2
f 205/3/2 206/3/2 207/3/2
f 206/3/2 188/3/2 208/3/2
f 207/3/2 206/3/2 208/3/2
f 211/3/3 210/3/3 209/3/3
f 212/3/3 210/3/3 211/3/3
f 219/3/3 214/3/3 213/3/3
f 220/3/3 214/3/3 219/3/3
f 221/3/3 216/3/3 215/3/3
f 222/3/3 216/3/3 221/3/3
f 224/3/3 221/3/3 220/3/3
f 225/3/3 221/3/3 224/3/3
f 226/3/3 224/3/3 223/3/3
f 227/3/3 224/3/3 226/3/3
f 229/3/3 218/3/3 217/3/3
f 231/3/3 229/3/3 228/3/3
f 232/3/3 218/3/3 229/3/3
f 232/3/3 229/3/3 231/3/3
f 233/3/3 231/3/3 230/3/3
f 234/3/3 231/3/3 233/3/3
f 235/3/3 211/3/3 209/3/3
f 236/3/3 210/3/3 212/3/3
f 237/3/3 235/3/3 209/3/3
f 237/3/3 236/3/3 235/3/3
f 238/3/3 210/3/3 236/3/3
f 238/3/3 236/3/3 237/3/3
f 241/2/3 240/2/3 239/2/3
f 242/2/3 240/2/3 241/2/3
f 243/2/3 240/2/3 242/2/3
f 244/2/3 240/2/3 243/2/3
f 245/2/3 240/2/3 244/2/3
f 246/2/3 240/2/3 245/2/3
f 247/2/3 241/2/3 239/2/3
f 248/2/3 243/2/3 242/2/3
f 249/2/3 243/2/3 248/2/3
f 250/2/3 245/2/3 244/2/3
f 251/2/3 247/2/3 239/2/3
f 251/2/3 248/2/3 247/2/3
f 252/2/3 248/2/3 251/2/3
f 253/2/3 250/2/3 249/2/3
f 254/2/3 251/2/3 239/2/3
f 255/2/3 253/2/3 252/2/3
f 256/2/3 245/2/3 250/2/3
f 256/2/3 255/2/3 254/2/3
f 256/2/3 253/2/3 255/2/3
f 256/2/3 250/2/3 253/2/3
f 257/2/3 245/2/3 256/2/3
f 258/2/3 256/2/3 254/2/3
f 259/2/3 256/2/3 258/2/3
f 260/2/3 240/2/3 246/2/3
f 261/2/3 258/2/3 254/2/3
f 262/2/3 260/2/3 259/2/3
f 263/2/3 261/2/3 254/2/3
f 263/2/3 262/2/3 261/2/3
f 263/2/3 254/2/3 239/2/3
f 264/2/3 260/2/3 262/2/3
f 264/2/3 262/2/3 263/2/3
f 264/2/3 240/2/3 260/2/3
f 269/3/3 266/3/3 265/3/3
f 270/3/3 266/3/3 269/3/3
f 271/3/3 268/3/3 267/3/3
f 272/3/3 268/3/3 271/3/3
f 277/3/3 274/3/3 273/3/3
f 278/3/3 274/3/3 277/3/3
f 279/3/3 276/3/3 275/3/3
f 280/3/3 276/3/3 279/3/3
f 285/3/3 282/3/3 281/3/3
f 286/3/3 282/3/3 285/3/3
f 287/3/3 284/3/3 283/3/3
f 288/3/3 284/3/3 287/3/3
f 293/3/3 290/3/3 289/3/3
f 294/3/3 290/3/3 293/3/3
f 295/3/3 292/3/3 291/3/3
f 296/3/3 292/3/3 295/3/3
f 299/3/3 298/3/3 297/3/3
f 300/3/3 298/3/3 299/3/3
f 305/3/3 302/3/3 301/3/3
f 306/3/3 302/3/3 305/3/3
f 307/3/3 304/3/3 303/3/3
f 308/3/3 304/3/3 307/3/3
f 311/3/3 310/3/3 309/3/3
f 312/3/3 310/3/3 311/3/3
f 316/3/3 314/3/3 313/3/3
f 317/3/3 314/3/3 316/3/3
f 319/3/3 316/3/3 315/3/3
f 320/3/3 316/3/3 319/3/3
f 321/3/3 318/3/3 317/3/3
f 322/3/3 318/3/3 321/3/3
f 323/3/3 321/3/3 320/3/3
f 324/3/3 321/3/3 323/3/3
f 325/3/4 326/3/4 328/3/4
f 328/3/4 326/3/4 329/3/4
f 327/3/4 328/3/4 331/3/4
f 331/3/4 328/3/4 332/3/4
f 329/3/4 330/3/4 333/3/4
f 333/3/4 330/3/4 334/3/4
f 332/3/4 333/3/4 335/3/4
f 335/3/4 333/3/4 336/3/4
f 337/3/4 338/3/4 341/3/4
f 341/3/4 338/3/4 342/3/4
f 339/3/4 340/3/4 343/3/4
f 343/3/4 340/3/4 344/3/4
f 345/3/4 346/3/4 349/3/4
f 349/3/4 346/3/4 350/3/4
f 347/3/4 348/3/4 351/3/4
f 351/3/4 348/3/4 352/3/4
f 353/3/4 354/3/4 355/3/4
f 355/3/4 354/3/4 356/3/4
f 357/3/4 358/3/4 361/3/4
f 361/3/4 358/3/4 362/3/4
f 359/3/4 360/3/4 363/3/4
f 363/3/4 360/3/4 364/3/4
f 365/3/4 366/3/4 367/3/4
f 367/3/4 366/3/4 368/3/4
f 369/3/4 370/3/4 373/3/4
f 373/3/4 370/3/4 374/3/4
f 371/3/4 372/3/4 375/3/4
f 375/3/4 372/3/4 376/3/4
f 377/3/4 378/3/4 379/3/4
f 379/3/4 378/3/4 380/3/4
f 381/2/4 382/2/4 383/2/4
f 383/2/4 382/2/4 384/2/4
f 381/2/4 383/2/4 385/2/4
f 384/2/4 382/2/4 386/2/4
f 381/2/4 385/2/4 387/2/4
f 385/2/4 386/2/4 387/2/4
f 387/2/4 386/2/4 388/2/4
f 381/2/4 387/2/4 389/2/4
f 388/2/4 386/2/4 390/2/4
f 381/2/4 389/2/4 391/2/4
f 389/2/4 390/2/4 391/2/4
f 386/2/4 382/2/4 392/2/4
f 391/2/4 390/2/4 392/2/4
f 390/2/4 386/2/4 392/2/4
f 381/2/4 391/2/4 393/2/4
f 392/2/4 382/2/4 394/2/4
f 381/2/4 393/2/4 395/2/4
f 393/2/4 394/2/4 395/2/4
f 394/2/4 382/2/4 396/2/4
f 395/2/4 394/2/4 396/2/4
f 397/3/4 398/3/4 399/3/4
f 399/3/4 398/3/4 400/3/4
f 401/3/4 402/3/4 403/3/4
f 403/3/4 402/3/4 404/3/4
f 405/3/4 406/3/4 407/3/4
f 407/3/4 406/3/4 408/3/4
f 409/3/4 410/3/4 411/3/4
f 411/3/4 410/3/4 412/3/4
f 397/3/4 399/3/4 413/3/4
f 400/3/4 398/3/4 414/3/4
f 397/3/4 413/3/4 415/3/4
f 413/3/4 414/3/4 415/3/4
f 414/3/4 398/3/4 416/3/4
f 415/3/4 414/3/4 416/3/4
f 419/3/5 418/3/5 417/3/5
f 420/3/5 418/3/5 419/3/5
f 421/3/5 419/3/5 417/3/5
f 422/3/5 418/3/5 420/3/5
f 423/3/5 421/3/5 417/3/5
f 423/3/5 422/3/5 421/3/5
f 424/3/5 418/3/5 422/3/5
f 424/3/5 422/3/5 423/3/5
f 427/2/5 426/2/5 425/2/5
f 428/2/5 426/2/5 427/2/5
f 433/3/5 430/3/5 429/3/5
f 434/3/5 430/3/5 433/3/5
f 435/3/5 432/3/5 431/3/5
f 436/3/5 432/3/5 435/3/5
f 439/3/5 438/3/5 437/3/5
f 440/3/5 438/3/5 439/3/5
f 445/3/5 442/3/5 441/3/5
f 446/3/5 442/3/5 445/3/5
f 447/3/5 444/3/5 443/3/5
f 448/3/5 444/3/5 447/3/5
f 453/3/5 450/3/5 449/3/5
f 454/3/5 450/3/5 453/3/5
f 455/3/5 452/3/5 451/3/5
f 456/3/5 452/3/5 455/3/5
f 461/3/5 458/3/5 457/3/5
f 462/3/5 458/3/5 461/3/5
f 463/3/5 460/3/5 459/3/5
f 464/3/5 460/3/5 463/3/5
f 467/3/5 466/3/5 465/3/5
f 468/3/5 466/3/5 467/3/5
f 471/3/5 470/3/5 469/3/5
f 472/3/5 470/3/5 471/3/5
f 475/3/5 474/3/5 473/3/5
f 476/3/5 474/3/5 475/3/5
f 479/3/5 478/3/5 477/3/5
f 480/3/5 478/3/5 479/3/5
f 483/3/5 482/3/5 481/3/5
f 484/3/5 482/3/5 483/3/5
f 487/3/5 486/3/5 485/3/5
f 488/3/5 486/3/5 487/3/5
f 491/3/5 490/3/5 489/3/5
f 492/3/5 490/3/5 491/3/5
f 495/3/5 494/3/5 493/3/5
f 496/3/5 494/3/5 495/3/5
f 499/3/5 498/3/5 497/3/5
f 500/3/5 498/3/5 499/3/5
f 505/3/5 502/3/5 501/3/5
f 506/3/5 502/3/5 505/3/5
f 507/3/5 504/3/5 503/3/5
f 508/3/5 504/3/5 507/3/5
f 512/3/5 510/3/5 509/3/5
f 513/3/5 510/3/5 512/3/5
f 515/3/5 512/3/5 511/3/5
f 516/3/5 512/3/5 515/3/5
f 517/3/5 514/3/5 513/3/5
f 518/3/5 514/3/5 517/3/5
f 519/3/5 517/3/5 516/3/5
f 520/3/5 517/3/5 519/3/5
f 521/3/6 522/3/6 524/3/6
f 524/3/6 522/3/6 525/3/6
f 523/3/6 524/3/6 527/3/6
f 527/3/6 524/3/6 528/3/6
f 529/3/6 530/3/6 531/3/6
f 531/3/6 530/3/6 532/3/6
f 525/3/6 526/3/6 533/3/6
f 533/3/6 526/3/6 534/3/6
f 532/3/6 533/3/6 535/3/6
f 535/3/6 533/3/6 536/3/6
f 537/3/6 538/3/6 539/3/6
f 539/3/6 538/3/6 540/3/6
f 541/3/6 542/3/6 545/3/6
f 545/3/6 542/3/6 546/3/6
f 543/3/6 544/3/6 547/3/6
f 547/3/6 544/3/6 548/3/6
f 549/3/6 550/3/6 551/3/6
f 551/3/6 550/3/6 552/3/6
f 553/3/6 554/3/6 557/3/6
f 557/3/6 554/3/6 558/3/6
f 555/3/6 556/3/6 559/3/6
f 559/3/6 556/3/6 560/3/6
f 561/3/6 562/3/6 563/3/6
f 563/3/6 562/3/6 564/3/6
f 565/3/6 566/3/6 567/3/6
f 567/3/6 566/3/6 568/3/6
f 569/3/6 570/3/6 573/3/6
f 573/3/6 570/3/6 574/3/6
f 571/3/6 572/3/6 575/3/6
f 575/3/6 572/3/6 576/3/6
f 577/3/6 578/3/6 579/3/6
f 579/3/6 578/3/6 580/3/6
f 581/3/6 582/3/6 583/3/6
f 583/3/6 582/3/6 584/3/6
f 585/3/6 586/3/6 587/3/6
f 587/3/6 586/3/6 588/3/6
f 589/3/6 590/3/6 591/3/6
f 591/3/6 590/3/6 592/3/6
f 593/3/6 594/3/6 595/3/6
f 595/3/6 594/3/6 596/3/6
f 597/3/6 598/3/6 599/3/6
f 599/3/6 598/3/6 600/3/6
f 601/3/6 602/3/6 605/3/6
f 605/3/6 602/3/6 606/3/6
f 603/3/6 604/3/6 607/3/6
f 607/3/6 604/3/6 608/3/6
f 609/3/6 610/3/6 611/3/6
f 611/3/6 610/3/6 612/3/6
f 613/3/6 614/3/6 617/3/6
f 617/3/6 614/3/6 618/3/6
f 615/3/6 616/3/6 619/3/6
f 619/3/6 616/3/6 620/3/6
f 621/2/6 622/2/6 623/2/6
f 623/2/6 622/2/6 624/2/6
f 625/3/6 626/3/6 627/3/6
f 627/3/6 626/3/6 628/3/6
f 625/3/6 627/3/6 629/3/6
f 628/3/6 626/3/6 630/3/6
f 625/3/6 629/3/6 631/3/6
f 629/3/6 630/3/6 631/3/6
f 630/3/6 626/3/6 632/3/6
f 631/3/6 630/3/6 632/3/6
