# MagicaVoxel @ Ephtracy

# group
o 

# material
mtllib Ящик 26.mtl
usemtl palette

# normals
vn -1 0 0
vn 1 0 0
vn 0 0 1
vn 0 0 -1
vn 0 -1 0
vn 0 1 0

# texcoords
vt 0.306641 0.5
vt 0.732422 0.5
vt 0.783203 0.5

# verts
v 1.1 1 -1
v 1.1 1 -2.1
v 1.1 1.1 -1.1
v 1.1 1.1 -2
v 1.1 2.9 -1.1
v 1.1 2.9 -2
v 1.1 3 -1
v 1.1 3 -2.1
v 1.2 1.1 -1.1
v 1.2 1.1 -2
v 1.2 2.9 -1.1
v 1.2 2.9 -2
v 2.1 1 -1.1
v 2.1 1 -2
v 2.1 1.1 -1
v 2.1 1.1 -1.1
v 2.1 1.1 -2
v 2.1 1.1 -2.1
v 2.1 2.9 -1
v 2.1 2.9 -1.1
v 2.1 2.9 -2
v 2.1 2.9 -2.1
v 2.1 3 -1.1
v 2.1 3 -2
v 1.2 1 -1.1
v 1.2 1 -2
v 1.2 1.1 -1
v 1.2 1.1 -1.1
v 1.2 1.1 -2
v 1.2 1.1 -2.1
v 1.2 2.9 -1
v 1.2 2.9 -1.1
v 1.2 2.9 -2
v 1.2 2.9 -2.1
v 1.2 3 -1.1
v 1.2 3 -2
v 2.1 1.1 -1.1
v 2.1 1.1 -2
v 2.1 2.9 -1.1
v 2.1 2.9 -2
v 2.2 1 -1
v 2.2 1 -2.1
v 2.2 1.1 -1.1
v 2.2 1.1 -2
v 2.2 2.9 -1.1
v 2.2 2.9 -2
v 2.2 3 -1
v 2.2 3 -2.1
v 1.1 1 -1
v 1.1 3 -1
v 1.2 1.1 -1
v 1.2 2.9 -1
v 2.1 1.1 -1
v 2.1 2.9 -1
v 2.2 1 -1
v 2.2 3 -1
v 1.2 1.1 -1.1
v 1.2 2.9 -1.1
v 2.1 1.1 -1.1
v 2.1 2.9 -1.1
v 1.1 1.1 -2
v 1.1 2.9 -2
v 1.2 1 -2
v 1.2 1.1 -2
v 1.2 2.9 -2
v 1.2 3 -2
v 2.1 1 -2
v 2.1 1.1 -2
v 2.1 2.9 -2
v 2.1 3 -2
v 2.2 1.1 -2
v 2.2 2.9 -2
v 1.1 1.1 -1.1
v 1.1 2.9 -1.1
v 1.2 1 -1.1
v 1.2 1.1 -1.1
v 1.2 2.9 -1.1
v 1.2 3 -1.1
v 2.1 1 -1.1
v 2.1 1.1 -1.1
v 2.1 2.9 -1.1
v 2.1 3 -1.1
v 2.2 1.1 -1.1
v 2.2 2.9 -1.1
v 1.2 1.1 -2
v 1.2 2.9 -2
v 2.1 1.1 -2
v 2.1 2.9 -2
v 1.1 1 -2.1
v 1.1 3 -2.1
v 1.2 1.1 -2.1
v 1.2 2.9 -2.1
v 2.1 1.1 -2.1
v 2.1 2.9 -2.1
v 2.2 1 -2.1
v 2.2 3 -2.1
v 1.1 1 -1
v 2.2 1 -1
v 1.2 1 -1.1
v 2.1 1 -1.1
v 1.2 1 -2
v 2.1 1 -2
v 1.1 1 -2.1
v 2.2 1 -2.1
v 1.2 1.1 -1.1
v 2.1 1.1 -1.1
v 1.2 1.1 -2
v 2.1 1.1 -2
v 1.2 2.9 -1
v 2.1 2.9 -1
v 1.1 2.9 -1.1
v 1.2 2.9 -1.1
v 2.1 2.9 -1.1
v 2.2 2.9 -1.1
v 1.1 2.9 -2
v 1.2 2.9 -2
v 2.1 2.9 -2
v 2.2 2.9 -2
v 1.2 2.9 -2.1
v 2.1 2.9 -2.1
v 1.2 1.1 -1
v 2.1 1.1 -1
v 1.1 1.1 -1.1
v 1.2 1.1 -1.1
v 2.1 1.1 -1.1
v 2.2 1.1 -1.1
v 1.1 1.1 -2
v 1.2 1.1 -2
v 2.1 1.1 -2
v 2.2 1.1 -2
v 1.2 1.1 -2.1
v 2.1 1.1 -2.1
v 1.2 2.9 -1.1
v 2.1 2.9 -1.1
v 1.2 2.9 -2
v 2.1 2.9 -2
v 1.1 3 -1
v 2.2 3 -1
v 1.2 3 -1.1
v 2.1 3 -1.1
v 1.2 3 -2
v 2.1 3 -2
v 1.1 3 -2.1
v 2.2 3 -2.1

# faces
f 3/3/1 2/3/1 1/3/1
f 4/3/1 2/3/1 3/3/1
f 5/3/1 3/3/1 1/3/1
f 6/3/1 2/3/1 4/3/1
f 7/3/1 5/3/1 1/3/1
f 7/3/1 6/3/1 5/3/1
f 8/3/1 2/3/1 6/3/1
f 8/3/1 6/3/1 7/3/1
f 11/2/1 10/2/1 9/2/1
f 12/2/1 10/2/1 11/2/1
f 16/3/1 14/3/1 13/3/1
f 17/3/1 14/3/1 16/3/1
f 19/3/1 16/3/1 15/3/1
f 20/3/1 16/3/1 19/3/1
f 21/3/1 18/3/1 17/3/1
f 22/3/1 18/3/1 21/3/1
f 23/3/1 21/3/1 20/3/1
f 24/3/1 21/3/1 23/3/1
f 25/3/2 26/3/2 28/3/2
f 28/3/2 26/3/2 29/3/2
f 27/3/2 28/3/2 31/3/2
f 31/3/2 28/3/2 32/3/2
f 29/3/2 30/3/2 33/3/2
f 33/3/2 30/3/2 34/3/2
f 32/3/2 33/3/2 35/3/2
f 35/3/2 33/3/2 36/3/2
f 37/2/2 38/2/2 39/2/2
f 39/2/2 38/2/2 40/2/2
f 41/3/2 42/3/2 43/3/2
f 43/3/2 42/3/2 44/3/2
f 41/3/2 43/3/2 45/3/2
f 44/3/2 42/3/2 46/3/2
f 41/3/2 45/3/2 47/3/2
f 45/3/2 46/3/2 47/3/2
f 46/3/2 42/3/2 48/3/2
f 47/3/2 46/3/2 48/3/2
f 51/3/3 50/3/3 49/3/3
f 52/3/3 50/3/3 51/3/3
f 53/3/3 51/3/3 49/3/3
f 54/3/3 50/3/3 52/3/3
f 55/3/3 53/3/3 49/3/3
f 55/3/3 54/3/3 53/3/3
f 56/3/3 50/3/3 54/3/3
f 56/3/3 54/3/3 55/3/3
f 59/2/3 58/2/3 57/2/3
f 60/2/3 58/2/3 59/2/3
f 64/3/3 62/3/3 61/3/3
f 65/3/3 62/3/3 64/3/3
f 67/3/3 64/3/3 63/3/3
f 68/3/3 64/3/3 67/3/3
f 69/3/3 66/3/3 65/3/3
f 70/3/3 66/3/3 69/3/3
f 71/3/3 69/3/3 68/3/3
f 72/3/3 69/3/3 71/3/3
f 73/3/4 74/3/4 76/3/4
f 76/3/4 74/3/4 77/3/4
f 75/3/4 76/3/4 79/3/4
f 79/3/4 76/3/4 80/3/4
f 77/3/4 78/3/4 81/3/4
f 81/3/4 78/3/4 82/3/4
f 80/3/4 81/3/4 83/3/4
f 83/3/4 81/3/4 84/3/4
f 85/2/4 86/2/4 87/2/4
f 87/2/4 86/2/4 88/2/4
f 89/3/4 90/3/4 91/3/4
f 91/3/4 90/3/4 92/3/4
f 89/3/4 91/3/4 93/3/4
f 92/3/4 90/3/4 94/3/4
f 89/3/4 93/3/4 95/3/4
f 93/3/4 94/3/4 95/3/4
f 94/3/4 90/3/4 96/3/4
f 95/3/4 94/3/4 96/3/4
f 99/3/5 98/3/5 97/3/5
f 100/3/5 98/3/5 99/3/5
f 101/3/5 99/3/5 97/3/5
f 102/3/5 98/3/5 100/3/5
f 103/3/5 101/3/5 97/3/5
f 103/3/5 102/3/5 101/3/5
f 104/3/5 98/3/5 102/3/5
f 104/3/5 102/3/5 103/3/5
f 107/2/5 106/2/5 105/2/5
f 108/2/5 106/2/5 107/2/5
f 112/3/5 110/3/5 109/3/5
f 113/3/5 110/3/5 112/3/5
f 115/3/5 112/3/5 111/3/5
f 116/3/5 112/3/5 115/3/5
f 117/3/5 114/3/5 113/3/5
f 118/3/5 114/3/5 117/3/5
f 119/3/5 117/3/5 116/3/5
f 120/3/5 117/3/5 119/3/5
f 121/3/6 122/3/6 124/3/6
f 124/3/6 122/3/6 125/3/6
f 123/3/6 124/3/6 127/3/6
f 127/3/6 124/3/6 128/3/6
f 125/3/6 126/3/6 129/3/6
f 129/3/6 126/3/6 130/3/6
f 128/3/6 129/3/6 131/3/6
f 131/3/6 129/3/6 132/3/6
f 133/2/6 134/2/6 135/2/6
f 135/2/6 134/2/6 136/2/6
f 137/3/6 138/3/6 139/3/6
f 139/3/6 138/3/6 140/3/6
f 137/3/6 139/3/6 141/3/6
f 140/3/6 138/3/6 142/3/6
f 137/3/6 141/3/6 143/3/6
f 141/3/6 142/3/6 143/3/6
f 142/3/6 138/3/6 144/3/6
f 143/3/6 142/3/6 144/3/6
