# MagicaVoxel @ Ephtracy

# group
o 

# material
mtllib card1.mtl
usemtl palette

# normals
vn -1 0 0
vn 1 0 0
vn 0 0 1
vn 0 0 -1
vn 0 -1 0
vn 0 1 0

# texcoords
vt 0.845703 0.5
vt 0.994141 0.5

# verts
v -0.5 0 0
v -0.5 0 -0.1
v -0.5 0.1 0
v -0.5 0.1 -0.1
v -0.5 0.6 0
v -0.5 0.6 -0.1
v -0.1 0.4 0
v -0.1 0.4 -0.1
v -0.1 0.6 0
v -0.1 0.6 -0.1
v -1.49012e-008 0.2 0
v -1.49012e-008 0.2 -0.1
v -1.49012e-008 0.4 0
v -1.49012e-008 0.4 -0.1
v 0.1 0 0
v 0.1 0 -0.1
v 0.1 0.1 0
v 0.1 0.1 -0.1
v 0.1 0.2 0
v 0.1 0.2 -0.1
v -0.5 0 0
v -0.5 0.1 0
v -0.5 0.6 0
v -0.4 0.2 0
v -0.4 0.5 0
v -0.3 0.3 0
v -0.3 0.5 0
v -0.2 0.2 0
v -0.2 0.3 0
v -0.1 0.2 0
v -0.1 0.4 0
v -0.1 0.6 0
v -1.49012e-008 0.2 0
v -1.49012e-008 0.4 0
v 0.1 0 0
v 0.1 0.1 0
v 0.1 0.2 0
v -0.5 0 -0.1
v -0.5 0.1 -0.1
v -0.5 0.6 -0.1
v -0.4 0.2 -0.1
v -0.4 0.5 -0.1
v -0.3 0.3 -0.1
v -0.3 0.5 -0.1
v -0.2 0.2 -0.1
v -0.2 0.3 -0.1
v -0.1 0.2 -0.1
v -0.1 0.4 -0.1
v -0.1 0.6 -0.1
v -1.49012e-008 0.2 -0.1
v -1.49012e-008 0.4 -0.1
v 0.1 0 -0.1
v 0.1 0.1 -0.1
v 0.1 0.2 -0.1
v -0.5 0 0
v 0.1 0 0
v -0.5 0 -0.1
v 0.1 0 -0.1
v -1.49012e-008 0.2 0
v 0.1 0.2 0
v -1.49012e-008 0.2 -0.1
v 0.1 0.2 -0.1
v -0.1 0.4 0
v -1.49012e-008 0.4 0
v -0.1 0.4 -0.1
v -1.49012e-008 0.4 -0.1
v -0.5 0.6 0
v -0.1 0.6 0
v -0.5 0.6 -0.1
v -0.1 0.6 -0.1

# faces
f 3/2/1 2/2/1 1/2/1
f 4/2/1 2/2/1 3/2/1
f 5/1/1 4/1/1 3/1/1
f 6/1/1 4/1/1 5/1/1
f 7/1/2 8/1/2 9/1/2
f 9/1/2 8/1/2 10/1/2
f 11/2/2 12/2/2 13/2/2
f 13/2/2 12/2/2 14/2/2
f 15/2/2 16/2/2 17/2/2
f 17/2/2 16/2/2 18/2/2
f 17/1/2 18/1/2 19/1/2
f 19/1/2 18/1/2 20/1/2
f 24/1/3 23/1/3 22/1/3
f 25/1/3 23/1/3 24/1/3
f 26/2/3 25/2/3 24/2/3
f 27/1/3 23/1/3 25/1/3
f 27/2/3 25/2/3 26/2/3
f 28/1/3 24/1/3 22/1/3
f 28/2/3 26/2/3 24/2/3
f 29/1/3 27/1/3 26/1/3
f 29/2/3 26/2/3 28/2/3
f 30/1/3 28/1/3 22/1/3
f 30/1/3 29/1/3 28/1/3
f 31/1/3 27/1/3 29/1/3
f 31/1/3 29/1/3 30/1/3
f 32/1/3 23/1/3 27/1/3
f 32/1/3 27/1/3 31/1/3
f 33/2/3 31/2/3 30/2/3
f 33/1/3 30/1/3 22/1/3
f 34/2/3 31/2/3 33/2/3
f 35/2/3 22/2/3 21/2/3
f 36/1/3 33/1/3 22/1/3
f 36/2/3 22/2/3 35/2/3
f 37/1/3 33/1/3 36/1/3
f 39/1/4 40/1/4 41/1/4
f 41/1/4 40/1/4 42/1/4
f 41/2/4 42/2/4 43/2/4
f 42/1/4 40/1/4 44/1/4
f 43/2/4 42/2/4 44/2/4
f 39/1/4 41/1/4 45/1/4
f 41/2/4 43/2/4 45/2/4
f 43/1/4 44/1/4 46/1/4
f 45/2/4 43/2/4 46/2/4
f 39/1/4 45/1/4 47/1/4
f 45/1/4 46/1/4 47/1/4
f 46/1/4 44/1/4 48/1/4
f 47/1/4 46/1/4 48/1/4
f 44/1/4 40/1/4 49/1/4
f 48/1/4 44/1/4 49/1/4
f 47/2/4 48/2/4 50/2/4
f 39/1/4 47/1/4 50/1/4
f 50/2/4 48/2/4 51/2/4
f 38/2/4 39/2/4 52/2/4
f 39/1/4 50/1/4 53/1/4
f 52/2/4 39/2/4 53/2/4
f 53/1/4 50/1/4 54/1/4
f 57/2/5 56/2/5 55/2/5
f 58/2/5 56/2/5 57/2/5
f 59/1/6 60/1/6 61/1/6
f 61/1/6 60/1/6 62/1/6
f 63/2/6 64/2/6 65/2/6
f 65/2/6 64/2/6 66/2/6
f 67/1/6 68/1/6 69/1/6
f 69/1/6 68/1/6 70/1/6
