# MagicaVoxel @ Ephtracy

# group
o 

# material
mtllib untitled.mtl
usemtl palette

# normals
vn -1 0 0
vn 1 0 0
vn 0 0 1
vn 0 0 -1
vn 0 -1 0
vn 0 1 0

# texcoords
vt 0.138672 0.5
vt 0.162109 0.5
vt 0.861328 0.5
vt 0.869141 0.5

# verts
v -0.9 1.9 -0.1
v -0.9 1.9 -0.2
v -0.9 2 -0.1
v -0.9 2 -0.2
v -0.9 2.1 -0.1
v -0.9 2.1 -0.2
v -0.8 1.8 -0.1
v -0.8 1.8 -0.2
v -0.8 1.9 -0.1
v -0.8 1.9 -0.2
v -0.6 1.8 -0.1
v -0.6 1.8 -0.2
v -0.6 1.9 -0.1
v -0.6 1.9 -0.2
v -0.6 2 -0.1
v -0.6 2 -0.2
v -0.6 2.1 -0.1
v -0.6 2.1 -0.2
v -0.5 2.1 -0.1
v -0.5 2.1 -0.2
v -0.5 2.2 -0.1
v -0.5 2.2 -0.2
v -0.1 2 -0.1
v -0.1 2 -0.2
v -0.1 2.1 -0.1
v -0.1 2.1 -0.2
v 0.2 1.8 -0.1
v 0.2 1.8 -0.2
v 0.2 1.9 -0.1
v 0.2 1.9 -0.2
v 0.2 2.1 -0.1
v 0.2 2.1 -0.2
v 0.2 2.2 -0.1
v 0.2 2.2 -0.2
v 0.3 1.7 -0.1
v 0.3 1.7 -0.2
v 0.3 1.8 -0.1
v 0.3 1.8 -0.2
v 0.3 2.2 -0.1
v 0.3 2.2 -0.2
v 0.3 2.3 -0.1
v 0.3 2.3 -0.2
v 0.4 1.6 -0.1
v 0.4 1.6 -0.2
v 0.4 1.7 -0.1
v 0.4 1.7 -0.2
v -0.7 1.8 -0.1
v -0.7 1.8 -0.2
v -0.7 1.9 -0.1
v -0.7 1.9 -0.2
v -0.7 2 -0.1
v -0.7 2 -0.2
v -0.7 2.1 -0.1
v -0.7 2.1 -0.2
v -0.5 1.8 -0.1
v -0.5 1.8 -0.2
v -0.5 1.9 -0.1
v -0.5 1.9 -0.2
v -0.4 2.1 -0.1
v -0.4 2.1 -0.2
v -0.4 2.2 -0.1
v -0.4 2.2 -0.2
v -0.2 2 -0.1
v -0.2 2 -0.2
v -0.2 2.1 -0.1
v -0.2 2.1 -0.2
v 0.7 1.6 -0.1
v 0.7 1.6 -0.2
v 0.7 1.7 -0.1
v 0.7 1.7 -0.2
v 0.7 2.2 -0.1
v 0.7 2.2 -0.2
v 0.7 2.3 -0.1
v 0.7 2.3 -0.2
v 0.8 1.7 -0.1
v 0.8 1.7 -0.2
v 0.8 1.8 -0.1
v 0.8 1.8 -0.2
v 0.8 2.1 -0.1
v 0.8 2.1 -0.2
v 0.8 2.2 -0.1
v 0.8 2.2 -0.2
v 0.9 1.8 -0.1
v 0.9 1.8 -0.2
v 0.9 2.1 -0.1
v 0.9 2.1 -0.2
v -0.9 1.9 -0.1
v -0.9 2 -0.1
v -0.9 2.1 -0.1
v -0.8 1.8 -0.1
v -0.8 1.9 -0.1
v -0.8 2 -0.1
v -0.8 2.1 -0.1
v -0.7 1.8 -0.1
v -0.7 1.9 -0.1
v -0.7 2 -0.1
v -0.7 2.1 -0.1
v -0.6 1.8 -0.1
v -0.6 1.9 -0.1
v -0.6 2 -0.1
v -0.6 2.1 -0.1
v -0.5 1.8 -0.1
v -0.5 1.9 -0.1
v -0.5 2.1 -0.1
v -0.5 2.2 -0.1
v -0.4 1.9 -0.1
v -0.4 2 -0.1
v -0.4 2.1 -0.1
v -0.4 2.2 -0.1
v -0.3 1.9 -0.1
v -0.3 2 -0.1
v -0.2 2 -0.1
v -0.2 2.1 -0.1
v -0.1 1.9 -0.1
v -0.1 2 -0.1
v -0.1 2.1 -0.1
v 0 1.9 -0.1
v 0 2 -0.1
v 0 2.1 -0.1
v 0.1 2 -0.1
v 0.1 2.1 -0.1
v 0.2 1.8 -0.1
v 0.2 1.9 -0.1
v 0.2 2.1 -0.1
v 0.2 2.2 -0.1
v 0.3 1.7 -0.1
v 0.3 1.8 -0.1
v 0.3 2.2 -0.1
v 0.3 2.3 -0.1
v 0.4 1.6 -0.1
v 0.4 1.7 -0.1
v 0.4 1.8 -0.1
v 0.4 2.1 -0.1
v 0.7 1.6 -0.1
v 0.7 1.7 -0.1
v 0.7 1.8 -0.1
v 0.7 2.1 -0.1
v 0.7 2.2 -0.1
v 0.7 2.3 -0.1
v 0.8 1.7 -0.1
v 0.8 1.8 -0.1
v 0.8 2.1 -0.1
v 0.8 2.2 -0.1
v 0.9 1.8 -0.1
v 0.9 2.1 -0.1
v -0.9 1.9 -0.2
v -0.9 2 -0.2
v -0.9 2.1 -0.2
v -0.8 1.8 -0.2
v -0.8 1.9 -0.2
v -0.8 2 -0.2
v -0.8 2.1 -0.2
v -0.7 1.8 -0.2
v -0.7 1.9 -0.2
v -0.7 2 -0.2
v -0.7 2.1 -0.2
v -0.6 1.8 -0.2
v -0.6 1.9 -0.2
v -0.6 2 -0.2
v -0.6 2.1 -0.2
v -0.5 1.8 -0.2
v -0.5 1.9 -0.2
v -0.5 2.1 -0.2
v -0.5 2.2 -0.2
v -0.4 1.9 -0.2
v -0.4 2 -0.2
v -0.4 2.1 -0.2
v -0.4 2.2 -0.2
v -0.3 1.9 -0.2
v -0.3 2 -0.2
v -0.2 2 -0.2
v -0.2 2.1 -0.2
v -0.1 1.9 -0.2
v -0.1 2 -0.2
v -0.1 2.1 -0.2
v 0 1.9 -0.2
v 0 2 -0.2
v 0 2.1 -0.2
v 0.1 2 -0.2
v 0.1 2.1 -0.2
v 0.2 1.8 -0.2
v 0.2 1.9 -0.2
v 0.2 2.1 -0.2
v 0.2 2.2 -0.2
v 0.3 1.7 -0.2
v 0.3 1.8 -0.2
v 0.3 2.2 -0.2
v 0.3 2.3 -0.2
v 0.4 1.6 -0.2
v 0.4 1.7 -0.2
v 0.4 1.8 -0.2
v 0.4 2.1 -0.2
v 0.7 1.6 -0.2
v 0.7 1.7 -0.2
v 0.7 1.8 -0.2
v 0.7 2.1 -0.2
v 0.7 2.2 -0.2
v 0.7 2.3 -0.2
v 0.8 1.7 -0.2
v 0.8 1.8 -0.2
v 0.8 2.1 -0.2
v 0.8 2.2 -0.2
v 0.9 1.8 -0.2
v 0.9 2.1 -0.2
v 0.4 1.6 -0.1
v 0.7 1.6 -0.1
v 0.4 1.6 -0.2
v 0.7 1.6 -0.2
v 0.3 1.7 -0.1
v 0.4 1.7 -0.1
v 0.7 1.7 -0.1
v 0.8 1.7 -0.1
v 0.3 1.7 -0.2
v 0.4 1.7 -0.2
v 0.7 1.7 -0.2
v 0.8 1.7 -0.2
v -0.8 1.8 -0.1
v -0.7 1.8 -0.1
v -0.6 1.8 -0.1
v -0.5 1.8 -0.1
v 0.2 1.8 -0.1
v 0.3 1.8 -0.1
v 0.8 1.8 -0.1
v 0.9 1.8 -0.1
v -0.8 1.8 -0.2
v -0.7 1.8 -0.2
v -0.6 1.8 -0.2
v -0.5 1.8 -0.2
v 0.2 1.8 -0.2
v 0.3 1.8 -0.2
v 0.8 1.8 -0.2
v 0.9 1.8 -0.2
v -0.9 1.9 -0.1
v -0.8 1.9 -0.1
v -0.7 1.9 -0.1
v -0.6 1.9 -0.1
v -0.5 1.9 -0.1
v -0.4 1.9 -0.1
v -0.3 1.9 -0.1
v -0.1 1.9 -0.1
v 0 1.9 -0.1
v 0.2 1.9 -0.1
v -0.9 1.9 -0.2
v -0.8 1.9 -0.2
v -0.7 1.9 -0.2
v -0.6 1.9 -0.2
v -0.5 1.9 -0.2
v -0.4 1.9 -0.2
v -0.3 1.9 -0.2
v -0.1 1.9 -0.2
v 0 1.9 -0.2
v 0.2 1.9 -0.2
v -0.7 2 -0.1
v -0.6 2 -0.1
v -0.2 2 -0.1
v -0.1 2 -0.1
v -0.7 2 -0.2
v -0.6 2 -0.2
v -0.2 2 -0.2
v -0.1 2 -0.2
v -0.9 2.1 -0.1
v -0.8 2.1 -0.1
v -0.7 2.1 -0.1
v -0.6 2.1 -0.1
v -0.5 2.1 -0.1
v -0.4 2.1 -0.1
v -0.2 2.1 -0.1
v -0.1 2.1 -0.1
v 0 2.1 -0.1
v 0.1 2.1 -0.1
v 0.2 2.1 -0.1
v 0.8 2.1 -0.1
v 0.9 2.1 -0.1
v -0.9 2.1 -0.2
v -0.8 2.1 -0.2
v -0.7 2.1 -0.2
v -0.6 2.1 -0.2
v -0.5 2.1 -0.2
v -0.4 2.1 -0.2
v -0.2 2.1 -0.2
v -0.1 2.1 -0.2
v 0 2.1 -0.2
v 0.1 2.1 -0.2
v 0.2 2.1 -0.2
v 0.8 2.1 -0.2
v 0.9 2.1 -0.2
v -0.5 2.2 -0.1
v -0.4 2.2 -0.1
v 0.2 2.2 -0.1
v 0.3 2.2 -0.1
v 0.7 2.2 -0.1
v 0.8 2.2 -0.1
v -0.5 2.2 -0.2
v -0.4 2.2 -0.2
v 0.2 2.2 -0.2
v 0.3 2.2 -0.2
v 0.7 2.2 -0.2
v 0.8 2.2 -0.2
v 0.3 2.3 -0.1
v 0.7 2.3 -0.1
v 0.3 2.3 -0.2
v 0.7 2.3 -0.2

# faces
f 3/2/1 2/2/1 1/2/1
f 4/2/1 2/2/1 3/2/1
f 5/4/1 4/4/1 3/4/1
f 6/4/1 4/4/1 5/4/1
f 9/2/1 8/2/1 7/2/1
f 10/2/1 8/2/1 9/2/1
f 13/2/1 12/2/1 11/2/1
f 14/2/1 12/2/1 13/2/1
f 17/2/1 16/2/1 15/2/1
f 18/2/1 16/2/1 17/2/1
f 21/4/1 20/4/1 19/4/1
f 22/4/1 20/4/1 21/4/1
f 25/2/1 24/2/1 23/2/1
f 26/2/1 24/2/1 25/2/1
f 29/4/1 28/4/1 27/4/1
f 30/4/1 28/4/1 29/4/1
f 33/4/1 32/4/1 31/4/1
f 34/4/1 32/4/1 33/4/1
f 37/4/1 36/4/1 35/4/1
f 38/4/1 36/4/1 37/4/1
f 41/4/1 40/4/1 39/4/1
f 42/4/1 40/4/1 41/4/1
f 45/4/1 44/4/1 43/4/1
f 46/4/1 44/4/1 45/4/1
f 47/2/2 48/2/2 49/2/2
f 49/2/2 48/2/2 50/2/2
f 51/2/2 52/2/2 53/2/2
f 53/2/2 52/2/2 54/2/2
f 55/2/2 56/2/2 57/2/2
f 57/2/2 56/2/2 58/2/2
f 59/4/2 60/4/2 61/4/2
f 61/4/2 60/4/2 62/4/2
f 63/2/2 64/2/2 65/2/2
f 65/2/2 64/2/2 66/2/2
f 67/4/2 68/4/2 69/4/2
f 69/4/2 68/4/2 70/4/2
f 71/4/2 72/4/2 73/4/2
f 73/4/2 72/4/2 74/4/2
f 75/4/2 76/4/2 77/4/2
f 77/4/2 76/4/2 78/4/2
f 79/4/2 80/4/2 81/4/2
f 81/4/2 80/4/2 82/4/2
f 83/4/2 84/4/2 85/4/2
f 85/4/2 84/4/2 86/4/2
f 91/2/3 88/2/3 87/2/3
f 92/4/3 89/4/3 88/4/3
f 92/2/3 88/2/3 91/2/3
f 93/4/3 89/4/3 92/4/3
f 94/2/3 91/2/3 90/2/3
f 94/2/3 92/2/3 91/2/3
f 94/2/3 93/2/3 92/2/3
f 95/2/3 93/2/3 94/2/3
f 96/2/3 93/2/3 95/2/3
f 97/2/3 93/2/3 96/2/3
f 99/2/3 96/2/3 95/2/3
f 100/2/3 96/2/3 99/2/3
f 102/2/3 99/2/3 98/2/3
f 102/2/3 101/2/3 100/2/3
f 102/2/3 100/2/3 99/2/3
f 103/2/3 101/2/3 102/2/3
f 104/2/3 101/2/3 103/2/3
f 106/2/3 104/2/3 103/2/3
f 107/2/3 104/2/3 106/2/3
f 108/4/3 105/4/3 104/4/3
f 108/2/3 104/2/3 107/2/3
f 109/4/3 105/4/3 108/4/3
f 110/3/3 107/3/3 106/3/3
f 111/2/3 108/2/3 107/2/3
f 111/3/3 107/3/3 110/3/3
f 112/2/3 111/2/3 110/2/3
f 112/2/3 108/2/3 111/2/3
f 113/2/3 108/2/3 112/2/3
f 114/2/3 112/2/3 110/2/3
f 115/2/3 112/2/3 114/2/3
f 117/4/3 115/4/3 114/4/3
f 118/2/3 116/2/3 115/2/3
f 118/4/3 115/4/3 117/4/3
f 119/2/3 116/2/3 118/2/3
f 120/2/3 118/2/3 117/2/3
f 120/4/3 119/4/3 118/4/3
f 121/4/3 119/4/3 120/4/3
f 123/2/3 120/2/3 117/2/3
f 123/2/3 121/2/3 120/2/3
f 124/2/3 121/2/3 123/2/3
f 127/4/3 124/4/3 123/4/3
f 127/4/3 125/4/3 124/4/3
f 127/4/3 123/4/3 122/4/3
f 128/4/3 125/4/3 127/4/3
f 131/4/3 128/4/3 127/4/3
f 131/4/3 129/4/3 128/4/3
f 131/4/3 127/4/3 126/4/3
f 132/4/3 129/4/3 131/4/3
f 133/4/3 129/4/3 132/4/3
f 134/4/3 131/4/3 130/4/3
f 134/4/3 132/4/3 131/4/3
f 135/4/3 132/4/3 134/4/3
f 136/1/3 133/1/3 132/1/3
f 136/4/3 132/4/3 135/4/3
f 137/4/3 129/4/3 133/4/3
f 137/1/3 133/1/3 136/1/3
f 138/4/3 129/4/3 137/4/3
f 139/4/3 129/4/3 138/4/3
f 140/4/3 136/4/3 135/4/3
f 140/4/3 138/4/3 137/4/3
f 140/4/3 137/4/3 136/4/3
f 141/4/3 138/4/3 140/4/3
f 142/4/3 138/4/3 141/4/3
f 143/4/3 138/4/3 142/4/3
f 144/4/3 142/4/3 141/4/3
f 145/4/3 142/4/3 144/4/3
f 146/2/4 147/2/4 150/2/4
f 147/4/4 148/4/4 151/4/4
f 150/2/4 147/2/4 151/2/4
f 151/4/4 148/4/4 152/4/4
f 149/2/4 150/2/4 153/2/4
f 150/2/4 151/2/4 153/2/4
f 151/2/4 152/2/4 153/2/4
f 153/2/4 152/2/4 154/2/4
f 154/2/4 152/2/4 155/2/4
f 155/2/4 152/2/4 156/2/4
f 154/2/4 155/2/4 158/2/4
f 158/2/4 155/2/4 159/2/4
f 157/2/4 158/2/4 161/2/4
f 159/2/4 160/2/4 161/2/4
f 158/2/4 159/2/4 161/2/4
f 161/2/4 160/2/4 162/2/4
f 162/2/4 160/2/4 163/2/4
f 162/2/4 163/2/4 165/2/4
f 165/2/4 163/2/4 166/2/4
f 163/4/4 164/4/4 167/4/4
f 166/2/4 163/2/4 167/2/4
f 167/4/4 164/4/4 168/4/4
f 165/3/4 166/3/4 169/3/4
f 166/2/4 167/2/4 170/2/4
f 169/3/4 166/3/4 170/3/4
f 169/2/4 170/2/4 171/2/4
f 170/2/4 167/2/4 171/2/4
f 171/2/4 167/2/4 172/2/4
f 169/2/4 171/2/4 173/2/4
f 173/2/4 171/2/4 174/2/4
f 173/4/4 174/4/4 176/4/4
f 174/2/4 175/2/4 177/2/4
f 176/4/4 174/4/4 177/4/4
f 177/2/4 175/2/4 178/2/4
f 176/2/4 177/2/4 179/2/4
f 177/4/4 178/4/4 179/4/4
f 179/4/4 178/4/4 180/4/4
f 176/2/4 179/2/4 182/2/4
f 179/2/4 180/2/4 182/2/4
f 182/2/4 180/2/4 183/2/4
f 182/4/4 183/4/4 186/4/4
f 183/4/4 184/4/4 186/4/4
f 181/4/4 182/4/4 186/4/4
f 186/4/4 184/4/4 187/4/4
f 186/4/4 187/4/4 190/4/4
f 187/4/4 188/4/4 190/4/4
f 185/4/4 186/4/4 190/4/4
f 190/4/4 188/4/4 191/4/4
f 191/4/4 188/4/4 192/4/4
f 189/4/4 190/4/4 193/4/4
f 190/4/4 191/4/4 193/4/4
f 193/4/4 191/4/4 194/4/4
f 191/1/4 192/1/4 195/1/4
f 194/4/4 191/4/4 195/4/4
f 192/4/4 188/4/4 196/4/4
f 195/1/4 192/1/4 196/1/4
f 196/4/4 188/4/4 197/4/4
f 197/4/4 188/4/4 198/4/4
f 194/4/4 195/4/4 199/4/4
f 196/4/4 197/4/4 199/4/4
f 195/4/4 196/4/4 199/4/4
f 199/4/4 197/4/4 200/4/4
f 200/4/4 197/4/4 201/4/4
f 201/4/4 197/4/4 202/4/4
f 200/4/4 201/4/4 203/4/4
f 203/4/4 201/4/4 204/4/4
f 207/4/5 206/4/5 205/4/5
f 208/4/5 206/4/5 207/4/5
f 213/4/5 210/4/5 209/4/5
f 214/4/5 210/4/5 213/4/5
f 215/4/5 212/4/5 211/4/5
f 216/4/5 212/4/5 215/4/5
f 225/2/5 218/2/5 217/2/5
f 226/2/5 218/2/5 225/2/5
f 227/2/5 220/2/5 219/2/5
f 228/2/5 220/2/5 227/2/5
f 229/4/5 222/4/5 221/4/5
f 230/4/5 222/4/5 229/4/5
f 231/4/5 224/4/5 223/4/5
f 232/4/5 224/4/5 231/4/5
f 243/2/5 234/2/5 233/2/5
f 244/2/5 234/2/5 243/2/5
f 245/2/5 236/2/5 235/2/5
f 246/2/5 236/2/5 245/2/5
f 247/2/5 238/2/5 237/2/5
f 248/3/5 239/3/5 238/3/5
f 248/2/5 238/2/5 247/2/5
f 249/2/5 240/2/5 239/2/5
f 249/3/5 239/3/5 248/3/5
f 250/4/5 241/4/5 240/4/5
f 250/2/5 240/2/5 249/2/5
f 251/2/5 242/2/5 241/2/5
f 251/4/5 241/4/5 250/4/5
f 252/2/5 242/2/5 251/2/5
f 253/2/6 254/2/6 257/2/6
f 257/2/6 254/2/6 258/2/6
f 255/2/6 256/2/6 259/2/6
f 259/2/6 256/2/6 260/2/6
f 261/4/6 262/4/6 274/4/6
f 262/2/6 263/2/6 275/2/6
f 274/4/6 262/4/6 275/4/6
f 275/2/6 263/2/6 276/2/6
f 264/2/6 265/2/6 277/2/6
f 277/2/6 265/2/6 278/2/6
f 266/2/6 267/2/6 279/2/6
f 279/2/6 267/2/6 280/2/6
f 268/2/6 269/2/6 281/2/6
f 269/4/6 270/4/6 282/4/6
f 281/2/6 269/2/6 282/2/6
f 270/2/6 271/2/6 283/2/6
f 282/4/6 270/4/6 283/4/6
f 283/2/6 271/2/6 284/2/6
f 272/4/6 273/4/6 285/4/6
f 285/4/6 273/4/6 286/4/6
f 287/4/6 288/4/6 293/4/6
f 293/4/6 288/4/6 294/4/6
f 289/4/6 290/4/6 295/4/6
f 295/4/6 290/4/6 296/4/6
f 291/4/6 292/4/6 297/4/6
f 297/4/6 292/4/6 298/4/6
f 299/4/6 300/4/6 301/4/6
f 301/4/6 300/4/6 302/4/6
