# MagicaVoxel @ Ephtracy

# group
o 

# material
mtllib cake.mtl
usemtl palette

# normals
vn -1 0 0
vn 1 0 0
vn 0 0 1
vn 0 0 -1
vn 0 -1 0
vn 0 1 0

# texcoords
vt 0.0996094 0.5
vt 0.333984 0.5
vt 0.845703 0.5
vt 0.873047 0.5
vt 0.962891 0.5

# verts
v -0.4 0 3.72529e-008
v -0.4 0 -0.3
v -0.4 0.1 3.72529e-008
v -0.4 0.1 -0.3
v -0.4 0.2 3.72529e-008
v -0.4 0.2 -0.3
v -0.4 0.3 3.72529e-008
v -0.4 0.3 -0.3
v -0.4 0.4 3.72529e-008
v -0.4 0.4 -0.3
v -0.3 0 0.2
v -0.3 0 3.72529e-008
v -0.3 0.1 0.2
v -0.3 0.1 3.72529e-008
v -0.3 0.2 0.2
v -0.3 0.2 3.72529e-008
v -0.3 0.3 0.2
v -0.3 0.3 3.72529e-008
v -0.3 0.4 0.2
v -0.3 0.4 3.72529e-008
v -0.2 0 0.4
v -0.2 0 0.2
v -0.2 0.1 0.4
v -0.2 0.1 0.2
v -0.2 0.2 0.4
v -0.2 0.2 0.2
v -0.2 0.3 0.4
v -0.2 0.3 0.2
v -0.2 0.4 0.4
v -0.2 0.4 0.2
v -0.1 0 0.6
v -0.1 0 0.4
v -0.1 0.1 0.6
v -0.1 0.1 0.4
v -0.1 0.2 0.6
v -0.1 0.2 0.4
v -0.1 0.3 0.6
v -0.1 0.3 0.4
v -0.1 0.4 0.6
v -0.1 0.4 0.4
v -0.1 0.4 0.1
v -0.1 0.4 -0.1
v -0.1 0.6 0.1
v -0.1 0.6 -0.1
v 0.1 0 0.6
v 0.1 0 0.4
v 0.1 0.1 0.6
v 0.1 0.1 0.4
v 0.1 0.2 0.6
v 0.1 0.2 0.4
v 0.1 0.3 0.6
v 0.1 0.3 0.4
v 0.1 0.4 0.6
v 0.1 0.4 0.4
v 0.1 0.4 0.1
v 0.1 0.4 -0.1
v 0.1 0.6 0.1
v 0.1 0.6 -0.1
v 0.2 0 0.4
v 0.2 0 0.2
v 0.2 0.1 0.4
v 0.2 0.1 0.2
v 0.2 0.2 0.4
v 0.2 0.2 0.2
v 0.2 0.3 0.4
v 0.2 0.3 0.2
v 0.2 0.4 0.4
v 0.2 0.4 0.2
v 0.3 0 0.2
v 0.3 0 3.72529e-008
v 0.3 0.1 0.2
v 0.3 0.1 3.72529e-008
v 0.3 0.2 0.2
v 0.3 0.2 3.72529e-008
v 0.3 0.3 0.2
v 0.3 0.3 3.72529e-008
v 0.3 0.4 0.2
v 0.3 0.4 3.72529e-008
v 0.4 0 3.72529e-008
v 0.4 0 -0.3
v 0.4 0.1 3.72529e-008
v 0.4 0.1 -0.3
v 0.4 0.2 3.72529e-008
v 0.4 0.2 -0.3
v 0.4 0.3 3.72529e-008
v 0.4 0.3 -0.3
v 0.4 0.4 3.72529e-008
v 0.4 0.4 -0.3
v -0.1 0 0.6
v -0.1 0.1 0.6
v -0.1 0.2 0.6
v -0.1 0.3 0.6
v -0.1 0.4 0.6
v 0.1 0 0.6
v 0.1 0.1 0.6
v 0.1 0.2 0.6
v 0.1 0.3 0.6
v 0.1 0.4 0.6
v -0.2 0 0.4
v -0.2 0.1 0.4
v -0.2 0.2 0.4
v -0.2 0.3 0.4
v -0.2 0.4 0.4
v -0.1 0 0.4
v -0.1 0.1 0.4
v -0.1 0.2 0.4
v -0.1 0.3 0.4
v -0.1 0.4 0.4
v 0.1 0 0.4
v 0.1 0.1 0.4
v 0.1 0.2 0.4
v 0.1 0.3 0.4
v 0.1 0.4 0.4
v 0.2 0 0.4
v 0.2 0.1 0.4
v 0.2 0.2 0.4
v 0.2 0.3 0.4
v 0.2 0.4 0.4
v -0.3 0 0.2
v -0.3 0.1 0.2
v -0.3 0.2 0.2
v -0.3 0.3 0.2
v -0.3 0.4 0.2
v -0.2 0 0.2
v -0.2 0.1 0.2
v -0.2 0.2 0.2
v -0.2 0.3 0.2
v -0.2 0.4 0.2
v 0.2 0 0.2
v 0.2 0.1 0.2
v 0.2 0.2 0.2
v 0.2 0.3 0.2
v 0.2 0.4 0.2
v 0.3 0 0.2
v 0.3 0.1 0.2
v 0.3 0.2 0.2
v 0.3 0.3 0.2
v 0.3 0.4 0.2
v -0.1 0.4 0.1
v -0.1 0.6 0.1
v 0.1 0.4 0.1
v 0.1 0.6 0.1
v -0.4 0 3.72529e-008
v -0.4 0.1 3.72529e-008
v -0.4 0.2 3.72529e-008
v -0.4 0.3 3.72529e-008
v -0.4 0.4 3.72529e-008
v -0.3 0 3.72529e-008
v -0.3 0.1 3.72529e-008
v -0.3 0.2 3.72529e-008
v -0.3 0.3 3.72529e-008
v -0.3 0.4 3.72529e-008
v 0.3 0 3.72529e-008
v 0.3 0.1 3.72529e-008
v 0.3 0.2 3.72529e-008
v 0.3 0.3 3.72529e-008
v 0.3 0.4 3.72529e-008
v 0.4 0 3.72529e-008
v 0.4 0.1 3.72529e-008
v 0.4 0.2 3.72529e-008
v 0.4 0.3 3.72529e-008
v 0.4 0.4 3.72529e-008
v -0.1 0.4 -0.1
v -0.1 0.6 -0.1
v 0.1 0.4 -0.1
v 0.1 0.6 -0.1
v -0.4 0 -0.3
v -0.4 0.1 -0.3
v -0.4 0.2 -0.3
v -0.4 0.3 -0.3
v -0.4 0.4 -0.3
v 0.4 0 -0.3
v 0.4 0.1 -0.3
v 0.4 0.2 -0.3
v 0.4 0.3 -0.3
v 0.4 0.4 -0.3
v -0.1 0 0.6
v 0.1 0 0.6
v -0.2 0 0.4
v -0.1 0 0.4
v 0.1 0 0.4
v 0.2 0 0.4
v -0.3 0 0.2
v -0.2 0 0.2
v 0.2 0 0.2
v 0.3 0 0.2
v -0.4 0 3.72529e-008
v -0.3 0 3.72529e-008
v 0.3 0 3.72529e-008
v 0.4 0 3.72529e-008
v -0.4 0 -0.3
v 0.4 0 -0.3
v -0.1 0.4 0.6
v 0.1 0.4 0.6
v -0.2 0.4 0.4
v -0.1 0.4 0.4
v 0.1 0.4 0.4
v 0.2 0.4 0.4
v -0.3 0.4 0.2
v -0.2 0.4 0.2
v 0.2 0.4 0.2
v 0.3 0.4 0.2
v -0.1 0.4 0.1
v 0.1 0.4 0.1
v -0.4 0.4 3.72529e-008
v -0.3 0.4 3.72529e-008
v 0.3 0.4 3.72529e-008
v 0.4 0.4 3.72529e-008
v -0.1 0.4 -0.1
v 0.1 0.4 -0.1
v -0.4 0.4 -0.3
v 0.4 0.4 -0.3
v -0.1 0.6 0.1
v 0.1 0.6 0.1
v -0.1 0.6 -0.1
v 0.1 0.6 -0.1

# faces
f 3/4/1 2/4/1 1/4/1
f 4/4/1 2/4/1 3/4/1
f 5/5/1 4/5/1 3/5/1
f 6/5/1 4/5/1 5/5/1
f 7/1/1 6/1/1 5/1/1
f 8/1/1 6/1/1 7/1/1
f 9/2/1 8/2/1 7/2/1
f 10/2/1 8/2/1 9/2/1
f 13/4/1 12/4/1 11/4/1
f 14/4/1 12/4/1 13/4/1
f 15/5/1 14/5/1 13/5/1
f 16/5/1 14/5/1 15/5/1
f 17/1/1 16/1/1 15/1/1
f 18/1/1 16/1/1 17/1/1
f 19/2/1 18/2/1 17/2/1
f 20/2/1 18/2/1 19/2/1
f 23/4/1 22/4/1 21/4/1
f 24/4/1 22/4/1 23/4/1
f 25/5/1 24/5/1 23/5/1
f 26/5/1 24/5/1 25/5/1
f 27/1/1 26/1/1 25/1/1
f 28/1/1 26/1/1 27/1/1
f 29/2/1 28/2/1 27/2/1
f 30/2/1 28/2/1 29/2/1
f 33/4/1 32/4/1 31/4/1
f 34/4/1 32/4/1 33/4/1
f 35/5/1 34/5/1 33/5/1
f 36/5/1 34/5/1 35/5/1
f 37/1/1 36/1/1 35/1/1
f 38/1/1 36/1/1 37/1/1
f 39/2/1 38/2/1 37/2/1
f 40/2/1 38/2/1 39/2/1
f 43/3/1 42/3/1 41/3/1
f 44/3/1 42/3/1 43/3/1
f 45/4/2 46/4/2 47/4/2
f 47/4/2 46/4/2 48/4/2
f 47/5/2 48/5/2 49/5/2
f 49/5/2 48/5/2 50/5/2
f 49/1/2 50/1/2 51/1/2
f 51/1/2 50/1/2 52/1/2
f 51/2/2 52/2/2 53/2/2
f 53/2/2 52/2/2 54/2/2
f 55/3/2 56/3/2 57/3/2
f 57/3/2 56/3/2 58/3/2
f 59/4/2 60/4/2 61/4/2
f 61/4/2 60/4/2 62/4/2
f 61/5/2 62/5/2 63/5/2
f 63/5/2 62/5/2 64/5/2
f 63/1/2 64/1/2 65/1/2
f 65/1/2 64/1/2 66/1/2
f 65/2/2 66/2/2 67/2/2
f 67/2/2 66/2/2 68/2/2
f 69/4/2 70/4/2 71/4/2
f 71/4/2 70/4/2 72/4/2
f 71/5/2 72/5/2 73/5/2
f 73/5/2 72/5/2 74/5/2
f 73/1/2 74/1/2 75/1/2
f 75/1/2 74/1/2 76/1/2
f 75/2/2 76/2/2 77/2/2
f 77/2/2 76/2/2 78/2/2
f 79/4/2 80/4/2 81/4/2
f 81/4/2 80/4/2 82/4/2
f 81/5/2 82/5/2 83/5/2
f 83/5/2 82/5/2 84/5/2
f 83/1/2 84/1/2 85/1/2
f 85/1/2 84/1/2 86/1/2
f 85/2/2 86/2/2 87/2/2
f 87/2/2 86/2/2 88/2/2
f 94/4/3 90/4/3 89/4/3
f 95/5/3 91/5/3 90/5/3
f 95/4/3 90/4/3 94/4/3
f 96/1/3 92/1/3 91/1/3
f 96/5/3 91/5/3 95/5/3
f 97/2/3 93/2/3 92/2/3
f 97/1/3 92/1/3 96/1/3
f 98/2/3 93/2/3 97/2/3
f 104/4/3 100/4/3 99/4/3
f 105/5/3 101/5/3 100/5/3
f 105/4/3 100/4/3 104/4/3
f 106/1/3 102/1/3 101/1/3
f 106/5/3 101/5/3 105/5/3
f 107/2/3 103/2/3 102/2/3
f 107/1/3 102/1/3 106/1/3
f 108/2/3 103/2/3 107/2/3
f 114/4/3 110/4/3 109/4/3
f 115/5/3 111/5/3 110/5/3
f 115/4/3 110/4/3 114/4/3
f 116/1/3 112/1/3 111/1/3
f 116/5/3 111/5/3 115/5/3
f 117/2/3 113/2/3 112/2/3
f 117/1/3 112/1/3 116/1/3
f 118/2/3 113/2/3 117/2/3
f 124/4/3 120/4/3 119/4/3
f 125/5/3 121/5/3 120/5/3
f 125/4/3 120/4/3 124/4/3
f 126/1/3 122/1/3 121/1/3
f 126/5/3 121/5/3 125/5/3
f 127/2/3 123/2/3 122/2/3
f 127/1/3 122/1/3 126/1/3
f 128/2/3 123/2/3 127/2/3
f 134/4/3 130/4/3 129/4/3
f 135/5/3 131/5/3 130/5/3
f 135/4/3 130/4/3 134/4/3
f 136/1/3 132/1/3 131/1/3
f 136/5/3 131/5/3 135/5/3
f 137/2/3 133/2/3 132/2/3
f 137/1/3 132/1/3 136/1/3
f 138/2/3 133/2/3 137/2/3
f 141/3/3 140/3/3 139/3/3
f 142/3/3 140/3/3 141/3/3
f 148/4/3 144/4/3 143/4/3
f 149/5/3 145/5/3 144/5/3
f 149/4/3 144/4/3 148/4/3
f 150/1/3 146/1/3 145/1/3
f 150/5/3 145/5/3 149/5/3
f 151/2/3 147/2/3 146/2/3
f 151/1/3 146/1/3 150/1/3
f 152/2/3 147/2/3 151/2/3
f 158/4/3 154/4/3 153/4/3
f 159/5/3 155/5/3 154/5/3
f 159/4/3 154/4/3 158/4/3
f 160/1/3 156/1/3 155/1/3
f 160/5/3 155/5/3 159/5/3
f 161/2/3 157/2/3 156/2/3
f 161/1/3 156/1/3 160/1/3
f 162/2/3 157/2/3 161/2/3
f 163/3/4 164/3/4 165/3/4
f 165/3/4 164/3/4 166/3/4
f 167/4/4 168/4/4 172/4/4
f 168/5/4 169/5/4 173/5/4
f 172/4/4 168/4/4 173/4/4
f 169/1/4 170/1/4 174/1/4
f 173/5/4 169/5/4 174/5/4
f 170/2/4 171/2/4 175/2/4
f 174/1/4 170/1/4 175/1/4
f 175/2/4 171/2/4 176/2/4
f 180/4/5 178/4/5 177/4/5
f 181/4/5 178/4/5 180/4/5
f 184/4/5 180/4/5 179/4/5
f 184/4/5 182/4/5 181/4/5
f 184/4/5 181/4/5 180/4/5
f 185/4/5 182/4/5 184/4/5
f 188/4/5 184/4/5 183/4/5
f 188/4/5 186/4/5 185/4/5
f 188/4/5 185/4/5 184/4/5
f 189/4/5 186/4/5 188/4/5
f 191/4/5 188/4/5 187/4/5
f 191/4/5 190/4/5 189/4/5
f 191/4/5 189/4/5 188/4/5
f 192/4/5 190/4/5 191/4/5
f 193/2/6 194/2/6 196/2/6
f 196/2/6 194/2/6 197/2/6
f 195/2/6 196/2/6 200/2/6
f 197/2/6 198/2/6 200/2/6
f 196/2/6 197/2/6 200/2/6
f 200/2/6 198/2/6 201/2/6
f 199/2/6 200/2/6 203/2/6
f 201/2/6 202/2/6 203/2/6
f 200/2/6 201/2/6 203/2/6
f 203/2/6 202/2/6 204/2/6
f 199/2/6 203/2/6 206/2/6
f 204/2/6 202/2/6 207/2/6
f 205/2/6 206/2/6 209/2/6
f 206/2/6 203/2/6 209/2/6
f 207/2/6 208/2/6 210/2/6
f 204/2/6 207/2/6 210/2/6
f 205/2/6 209/2/6 211/2/6
f 209/2/6 210/2/6 211/2/6
f 210/2/6 208/2/6 212/2/6
f 211/2/6 210/2/6 212/2/6
f 213/3/6 214/3/6 215/3/6
f 215/3/6 214/3/6 216/3/6
