# MagicaVoxel @ Ephtracy

# group
o 

# material
mtllib card2.mtl
usemtl palette

# normals
vn -1 0 0
vn 1 0 0
vn 0 0 1
vn 0 0 -1
vn 0 -1 0
vn 0 1 0

# texcoords
vt 0.845703 0.5
vt 0.994141 0.5

# verts
v 7.45058e-009 0.4 0
v 7.45058e-009 0.4 -0.1
v 7.45058e-009 0.5 0
v 7.45058e-009 0.5 -0.1
v 7.45058e-009 0.6 0
v 7.45058e-009 0.6 -0.1
v 0.1 0.2 0
v 0.1 0.2 -0.1
v 0.1 0.4 0
v 0.1 0.4 -0.1
v 0.2 0 0
v 0.2 0 -0.1
v 0.2 0.1 0
v 0.2 0.1 -0.1
v 0.2 0.2 0
v 0.2 0.2 -0.1
v 0.5 0 0
v 0.5 0 -0.1
v 0.5 0.1 0
v 0.5 0.1 -0.1
v 0.5 0.6 0
v 0.5 0.6 -0.1
v 7.45058e-009 0.4 0
v 7.45058e-009 0.5 0
v 7.45058e-009 0.6 0
v 0.1 0.2 0
v 0.1 0.4 0
v 0.1 0.5 0
v 0.2 0 0
v 0.2 0.1 0
v 0.2 0.2 0
v 0.2 0.5 0
v 0.3 0.3 0
v 0.3 0.5 0
v 0.4 0.2 0
v 0.4 0.3 0
v 0.5 0 0
v 0.5 0.1 0
v 0.5 0.6 0
v 7.45058e-009 0.4 -0.1
v 7.45058e-009 0.5 -0.1
v 7.45058e-009 0.6 -0.1
v 0.1 0.2 -0.1
v 0.1 0.4 -0.1
v 0.1 0.5 -0.1
v 0.2 0 -0.1
v 0.2 0.1 -0.1
v 0.2 0.2 -0.1
v 0.2 0.5 -0.1
v 0.3 0.3 -0.1
v 0.3 0.5 -0.1
v 0.4 0.2 -0.1
v 0.4 0.3 -0.1
v 0.5 0 -0.1
v 0.5 0.1 -0.1
v 0.5 0.6 -0.1
v 0.2 0 0
v 0.5 0 0
v 0.2 0 -0.1
v 0.5 0 -0.1
v 0.1 0.2 0
v 0.2 0.2 0
v 0.1 0.2 -0.1
v 0.2 0.2 -0.1
v 7.45058e-009 0.4 0
v 0.1 0.4 0
v 7.45058e-009 0.4 -0.1
v 0.1 0.4 -0.1
v 7.45058e-009 0.6 0
v 0.5 0.6 0
v 7.45058e-009 0.6 -0.1
v 0.5 0.6 -0.1

# faces
f 3/2/1 2/2/1 1/2/1
f 4/2/1 2/2/1 3/2/1
f 5/1/1 4/1/1 3/1/1
f 6/1/1 4/1/1 5/1/1
f 9/1/1 8/1/1 7/1/1
f 10/1/1 8/1/1 9/1/1
f 13/2/1 12/2/1 11/2/1
f 14/2/1 12/2/1 13/2/1
f 15/1/1 14/1/1 13/1/1
f 16/1/1 14/1/1 15/1/1
f 17/2/2 18/2/2 19/2/2
f 19/2/2 18/2/2 20/2/2
f 19/1/2 20/1/2 21/1/2
f 21/1/2 20/1/2 22/1/2
f 27/2/3 24/2/3 23/2/3
f 28/1/3 25/1/3 24/1/3
f 28/2/3 24/2/3 27/2/3
f 31/1/3 27/1/3 26/1/3
f 31/1/3 28/1/3 27/1/3
f 32/1/3 25/1/3 28/1/3
f 32/1/3 28/1/3 31/1/3
f 33/2/3 32/2/3 31/2/3
f 34/1/3 25/1/3 32/1/3
f 34/2/3 32/2/3 33/2/3
f 35/1/3 31/1/3 30/1/3
f 35/2/3 33/2/3 31/2/3
f 36/1/3 34/1/3 33/1/3
f 36/2/3 33/2/3 35/2/3
f 37/2/3 30/2/3 29/2/3
f 38/1/3 35/1/3 30/1/3
f 38/2/3 30/2/3 37/2/3
f 38/1/3 36/1/3 35/1/3
f 39/1/3 34/1/3 36/1/3
f 39/1/3 36/1/3 38/1/3
f 39/1/3 25/1/3 34/1/3
f 40/2/4 41/2/4 44/2/4
f 41/1/4 42/1/4 45/1/4
f 44/2/4 41/2/4 45/2/4
f 43/1/4 44/1/4 48/1/4
f 44/1/4 45/1/4 48/1/4
f 45/1/4 42/1/4 49/1/4
f 48/1/4 45/1/4 49/1/4
f 48/2/4 49/2/4 50/2/4
f 49/1/4 42/1/4 51/1/4
f 50/2/4 49/2/4 51/2/4
f 47/1/4 48/1/4 52/1/4
f 48/2/4 50/2/4 52/2/4
f 50/1/4 51/1/4 53/1/4
f 52/2/4 50/2/4 53/2/4
f 46/2/4 47/2/4 54/2/4
f 47/1/4 52/1/4 55/1/4
f 54/2/4 47/2/4 55/2/4
f 52/1/4 53/1/4 55/1/4
f 53/1/4 51/1/4 56/1/4
f 55/1/4 53/1/4 56/1/4
f 51/1/4 42/1/4 56/1/4
f 59/2/5 58/2/5 57/2/5
f 60/2/5 58/2/5 59/2/5
f 63/1/5 62/1/5 61/1/5
f 64/1/5 62/1/5 63/1/5
f 67/2/5 66/2/5 65/2/5
f 68/2/5 66/2/5 67/2/5
f 69/1/6 70/1/6 71/1/6
f 71/1/6 70/1/6 72/1/6
