# MagicaVoxel @ Ephtracy

# group
o 

# material
mtllib Дверь.mtl
usemtl palette

# normals
vn -1 0 0
vn 1 0 0
vn 0 0 1
vn 0 0 -1
vn 0 -1 0
vn 0 1 0

# texcoords
vt 0.966797 0.5
vt 0.974609 0.5

# verts
v -0.4 1.4 0.2
v -0.4 1.4 0.0999999
v -0.4 1.4 -0.3
v -0.4 1.4 -0.4
v -0.4 2.2 0.2
v -0.4 2.2 0.0999999
v -0.4 2.2 -0.3
v -0.4 2.2 -0.4
v -0.1 0 2
v -0.1 0 -2
v -0.1 0.1 2
v -0.1 0.1 -2
v -0.1 0.2 -0.1
v -0.1 0.2 -2
v -0.1 0.3 2
v -0.1 0.3 -2.38419e-07
v -0.1 1.4 0.2
v -0.1 1.4 0.0999999
v -0.1 1.4 -0.3
v -0.1 1.4 -0.4
v -0.1 1.5 0.2
v -0.1 1.5 0.0999999
v -0.1 1.5 -0.3
v -0.1 1.5 -0.4
v -0.1 2.1 0.2
v -0.1 2.1 0.0999999
v -0.1 2.1 -0.3
v -0.1 2.1 -0.4
v -0.1 2.2 0.2
v -0.1 2.2 0.0999999
v -0.1 2.2 -0.3
v -0.1 2.2 -0.4
v -0.1 3.8 2
v -0.1 3.8 -2.38419e-07
v -0.1 3.8 -0.1
v -0.1 3.8 -2
v -0.1 3.9 2
v -0.1 3.9 -2
v -0.1 4 2
v -0.1 4 -2
v 0 0.1 2
v 0 0.1 -2
v 0 0.2 -0.1
v 0 0.2 -2
v 0 0.3 2
v 0 0.3 -2.38419e-07
v 0 3.8 2
v 0 3.8 -2.38419e-07
v 0 3.8 -0.1
v 0 3.8 -2
v 0 3.9 2
v 0 3.9 -2
v -0.3 1.5 0.2
v -0.3 1.5 0.0999999
v -0.3 1.5 -0.3
v -0.3 1.5 -0.4
v -0.3 2.1 0.2
v -0.3 2.1 0.0999999
v -0.3 2.1 -0.3
v -0.3 2.1 -0.4
v 0.1 0 2
v 0.1 0 -2
v 0.1 4 2
v 0.1 4 -2
v -0.1 0 2
v -0.1 0.1 2
v -0.1 0.3 2
v -0.1 3.8 2
v -0.1 3.9 2
v -0.1 4 2
v 0 0.1 2
v 0 0.3 2
v 0 3.8 2
v 0 3.9 2
v 0.1 0 2
v 0.1 4 2
v -0.4 1.4 0.2
v -0.4 2.2 0.2
v -0.3 1.5 0.2
v -0.3 2.1 0.2
v -0.1 1.4 0.2
v -0.1 1.5 0.2
v -0.1 2.1 0.2
v -0.1 2.2 0.2
v -0.1 0.2 -0.1
v -0.1 3.8 -0.1
v 0 0.2 -0.1
v 0 3.8 -0.1
v -0.4 1.4 -0.3
v -0.4 2.2 -0.3
v -0.3 1.5 -0.3
v -0.3 2.1 -0.3
v -0.1 1.4 -0.3
v -0.1 1.5 -0.3
v -0.1 2.1 -0.3
v -0.1 2.2 -0.3
v -0.4 1.4 0.0999999
v -0.4 2.2 0.0999999
v -0.3 1.5 0.0999999
v -0.3 2.1 0.0999999
v -0.1 1.4 0.0999999
v -0.1 1.5 0.0999999
v -0.1 2.1 0.0999999
v -0.1 2.2 0.0999999
v -0.1 0.3 -2.38419e-07
v -0.1 3.8 -2.38419e-07
v 0 0.3 -2.38419e-07
v 0 3.8 -2.38419e-07
v -0.4 1.4 -0.4
v -0.4 2.2 -0.4
v -0.3 1.5 -0.4
v -0.3 2.1 -0.4
v -0.1 1.4 -0.4
v -0.1 1.5 -0.4
v -0.1 2.1 -0.4
v -0.1 2.2 -0.4
v -0.1 0 -2
v -0.1 0.1 -2
v -0.1 0.2 -2
v -0.1 3.8 -2
v -0.1 3.9 -2
v -0.1 4 -2
v 0 0.1 -2
v 0 0.2 -2
v 0 3.8 -2
v 0 3.9 -2
v 0.1 0 -2
v 0.1 4 -2
v -0.1 0 2
v 0.1 0 2
v -0.1 0 -2
v 0.1 0 -2
v -0.1 0.2 -0.1
v 0 0.2 -0.1
v -0.1 0.2 -2
v 0 0.2 -2
v -0.1 0.3 2
v 0 0.3 2
v -0.1 0.3 -2.38419e-07
v 0 0.3 -2.38419e-07
v -0.4 1.4 0.2
v -0.1 1.4 0.2
v -0.4 1.4 0.0999999
v -0.1 1.4 0.0999999
v -0.4 1.4 -0.3
v -0.1 1.4 -0.3
v -0.4 1.4 -0.4
v -0.1 1.4 -0.4
v -0.3 2.1 0.2
v -0.1 2.1 0.2
v -0.3 2.1 0.0999999
v -0.1 2.1 0.0999999
v -0.3 2.1 -0.3
v -0.1 2.1 -0.3
v -0.3 2.1 -0.4
v -0.1 2.1 -0.4
v -0.1 3.9 2
v 0 3.9 2
v -0.1 3.9 -2
v 0 3.9 -2
v -0.1 0.1 2
v 0 0.1 2
v -0.1 0.1 -2
v 0 0.1 -2
v -0.3 1.5 0.2
v -0.1 1.5 0.2
v -0.3 1.5 0.0999999
v -0.1 1.5 0.0999999
v -0.3 1.5 -0.3
v -0.1 1.5 -0.3
v -0.3 1.5 -0.4
v -0.1 1.5 -0.4
v -0.4 2.2 0.2
v -0.1 2.2 0.2
v -0.4 2.2 0.0999999
v -0.1 2.2 0.0999999
v -0.4 2.2 -0.3
v -0.1 2.2 -0.3
v -0.4 2.2 -0.4
v -0.1 2.2 -0.4
v -0.1 3.8 2
v 0 3.8 2
v -0.1 3.8 -2.38419e-07
v 0 3.8 -2.38419e-07
v -0.1 3.8 -0.1
v 0 3.8 -0.1
v -0.1 3.8 -2
v 0 3.8 -2
v -0.1 4 2
v 0.1 4 2
v -0.1 4 -2
v 0.1 4 -2

# faces
f 5/1/1 2/1/1 1/1/1
f 6/1/1 2/1/1 5/1/1
f 7/1/1 4/1/1 3/1/1
f 8/1/1 4/1/1 7/1/1
f 11/2/1 10/2/1 9/2/1
f 12/2/1 10/2/1 11/2/1
f 17/2/1 16/2/1 15/2/1
f 18/2/1 16/2/1 17/2/1
f 19/2/1 14/2/1 13/2/1
f 20/2/1 14/2/1 19/2/1
f 21/2/1 17/2/1 15/2/1
f 22/2/1 16/2/1 18/2/1
f 23/2/1 19/2/1 13/2/1
f 24/2/1 14/2/1 20/2/1
f 25/2/1 21/2/1 15/2/1
f 25/2/1 22/2/1 21/2/1
f 26/2/1 16/2/1 22/2/1
f 26/2/1 22/2/1 25/2/1
f 27/2/1 24/2/1 23/2/1
f 27/2/1 23/2/1 13/2/1
f 28/2/1 14/2/1 24/2/1
f 28/2/1 24/2/1 27/2/1
f 29/2/1 25/2/1 15/2/1
f 30/2/1 16/2/1 26/2/1
f 31/2/1 27/2/1 13/2/1
f 32/2/1 14/2/1 28/2/1
f 33/2/1 29/2/1 15/2/1
f 33/2/1 30/2/1 29/2/1
f 34/2/1 16/2/1 30/2/1
f 34/2/1 30/2/1 33/2/1
f 35/2/1 32/2/1 31/2/1
f 35/2/1 31/2/1 13/2/1
f 36/2/1 14/2/1 32/2/1
f 36/2/1 32/2/1 35/2/1
f 39/2/1 38/2/1 37/2/1
f 40/2/1 38/2/1 39/2/1
f 43/2/1 42/2/1 41/2/1
f 44/2/1 42/2/1 43/2/1
f 45/2/1 43/2/1 41/2/1
f 46/2/1 43/2/1 45/2/1
f 48/2/1 43/2/1 46/2/1
f 49/2/1 43/2/1 48/2/1
f 51/2/1 48/2/1 47/2/1
f 51/2/1 50/2/1 49/2/1
f 51/2/1 49/2/1 48/2/1
f 52/2/1 50/2/1 51/2/1
f 53/1/2 54/1/2 57/1/2
f 57/1/2 54/1/2 58/1/2
f 55/1/2 56/1/2 59/1/2
f 59/1/2 56/1/2 60/1/2
f 61/2/2 62/2/2 63/2/2
f 63/2/2 62/2/2 64/2/2
f 71/2/3 66/2/3 65/2/3
f 72/2/3 68/2/3 67/2/3
f 73/2/3 68/2/3 72/2/3
f 74/2/3 70/2/3 69/2/3
f 75/2/3 73/2/3 72/2/3
f 75/2/3 74/2/3 73/2/3
f 75/2/3 71/2/3 65/2/3
f 75/2/3 72/2/3 71/2/3
f 76/2/3 70/2/3 74/2/3
f 76/2/3 74/2/3 75/2/3
f 79/1/3 78/1/3 77/1/3
f 80/1/3 78/1/3 79/1/3
f 81/1/3 79/1/3 77/1/3
f 82/1/3 79/1/3 81/1/3
f 83/1/3 78/1/3 80/1/3
f 84/1/3 78/1/3 83/1/3
f 87/2/3 86/2/3 85/2/3
f 88/2/3 86/2/3 87/2/3
f 91/1/3 90/1/3 89/1/3
f 92/1/3 90/1/3 91/1/3
f 93/1/3 91/1/3 89/1/3
f 94/1/3 91/1/3 93/1/3
f 95/1/3 90/1/3 92/1/3
f 96/1/3 90/1/3 95/1/3
f 97/1/4 98/1/4 99/1/4
f 99/1/4 98/1/4 100/1/4
f 97/1/4 99/1/4 101/1/4
f 101/1/4 99/1/4 102/1/4
f 100/1/4 98/1/4 103/1/4
f 103/1/4 98/1/4 104/1/4
f 105/2/4 106/2/4 107/2/4
f 107/2/4 106/2/4 108/2/4
f 109/1/4 110/1/4 111/1/4
f 111/1/4 110/1/4 112/1/4
f 109/1/4 111/1/4 113/1/4
f 113/1/4 111/1/4 114/1/4
f 112/1/4 110/1/4 115/1/4
f 115/1/4 110/1/4 116/1/4
f 117/2/4 118/2/4 123/2/4
f 119/2/4 120/2/4 124/2/4
f 124/2/4 120/2/4 125/2/4
f 121/2/4 122/2/4 126/2/4
f 124/2/4 125/2/4 127/2/4
f 125/2/4 126/2/4 127/2/4
f 117/2/4 123/2/4 127/2/4
f 123/2/4 124/2/4 127/2/4
f 126/2/4 122/2/4 128/2/4
f 127/2/4 126/2/4 128/2/4
f 131/2/5 130/2/5 129/2/5
f 132/2/5 130/2/5 131/2/5
f 135/2/5 134/2/5 133/2/5
f 136/2/5 134/2/5 135/2/5
f 139/2/5 138/2/5 137/2/5
f 140/2/5 138/2/5 139/2/5
f 143/1/5 142/1/5 141/1/5
f 144/1/5 142/1/5 143/1/5
f 147/1/5 146/1/5 145/1/5
f 148/1/5 146/1/5 147/1/5
f 151/1/5 150/1/5 149/1/5
f 152/1/5 150/1/5 151/1/5
f 155/1/5 154/1/5 153/1/5
f 156/1/5 154/1/5 155/1/5
f 159/2/5 158/2/5 157/2/5
f 160/2/5 158/2/5 159/2/5
f 161/2/6 162/2/6 163/2/6
f 163/2/6 162/2/6 164/2/6
f 165/1/6 166/1/6 167/1/6
f 167/1/6 166/1/6 168/1/6
f 169/1/6 170/1/6 171/1/6
f 171/1/6 170/1/6 172/1/6
f 173/1/6 174/1/6 175/1/6
f 175/1/6 174/1/6 176/1/6
f 177/1/6 178/1/6 179/1/6
f 179/1/6 178/1/6 180/1/6
f 181/2/6 182/2/6 183/2/6
f 183/2/6 182/2/6 184/2/6
f 185/2/6 186/2/6 187/2/6
f 187/2/6 186/2/6 188/2/6
f 189/2/6 190/2/6 191/2/6
f 191/2/6 190/2/6 192/2/6
